SplineFontDB: 3.2
FontName: MFEKSans-Regular
FullName: MFEK Sans Regular
FamilyName: MFEK Sans
Weight: Regular
Copyright: 
Version: 0.1
ItalicAngle: -13
UnderlinePosition: -200
UnderlineWidth: 100
Ascent: 1600
Descent: 400
InvalidEm: 0
LayerCount: 2
Layer: 0 0 "Back" 1
Layer: 1 0 "Fore" 0
XUID: [1021 31 -699969567 16487490]
FSType: 0
OS2Version: 0
OS2_WeightWidthSlopeOnly: 0
OS2_UseTypoMetrics: 1
CreationTime: 1460762150
ModificationTime: 1696432768
PfmFamily: 33
TTFWeight: 400
TTFWidth: 1
LineGap: 0
VLineGap: 0
OS2TypoAscent: 2500
OS2TypoAOffset: 0
OS2TypoDescent: -850
OS2TypoDOffset: 0
OS2TypoLinegap: 0
OS2WinAscent: 2500
OS2WinAOffset: 0
OS2WinDescent: 850
OS2WinDOffset: 0
HheadAscent: 2500
HheadAOffset: 0
HheadDescent: -850
HheadDOffset: 0
OS2CapHeight: 1500
OS2XHeight: 1040
OS2FamilyClass: 2053
OS2Vendor: 'it* '
OS2UnicodeRanges: 00000001.00000000.00000000.00000000
Lookup: 258 0 0 "kerning yeah boi" { "say cheese" [300,0,4] } ['kern' ('DFLT' <'dflt' > 'grek' <'dflt' > 'latn' <'dflt' > ) ]
MarkAttachClasses: 1
DEI: 91125
KernClass2: 30 23 "say cheese"
 73 A Agrave Aacute Acircumflex Atilde Adieresis Aring Amacron Abreve Aogonek
 96 D O Ograve Oacute Ocircumflex Otilde Odieresis Oslash Dcaron Dcroat Omacron Obreve Ohungarumlaut
 81 E AE Egrave Eacute Ecircumflex Edieresis Emacron Ebreve Edotaccent Eogonek Ecaron
 1 F
 39 G Gcircumflex Gbreve Gdotaccent uni0122
 104 J U Ugrave Uacute Ucircumflex Udieresis IJ Jcircumflex Utilde Umacron Ubreve Uring Uhungarumlaut Uogonek
 11 K X uni0136
 23 L Lacute uni013B Lslash
 1 P
 1 Q
 23 R Racute uni0156 Rcaron
 36 S Sacute Scircumflex Scedilla Scaron
 21 T uni0162 Tcaron Tbar
 1 V
 53 W Wcircumflex Wgrave Wacute Wdieresis uni1E86 uni1E88
 30 Y Ycircumflex Ydieresis Ygrave
 26 Z Zacute Zdotaccent Zcaron
 73 a agrave aacute acircumflex atilde adieresis aring amacron abreve aogonek

StartChar: ampersand
Encoding: 38 38 0
Width: 616
VWidth: 1920
Flags: HMW
LayerCount: 2
Fore
SplineSet
344 57 m 2
 309 1036 l 2
 304 1126 301 1178 316 1243 c 0
 337 1332 416 1417 546 1417 c 0
 678 1417 722 1336 698 1230 c 0
 666 1092 531 994 373 930 c 0
 241 877 206 819 179 703 c 0
 170 663 166 602 171 535 c 2
 181 266 l 2
 185 156 182 90 231 90 c 0
 321 90 457 359 538 593 c 0
 556 646 574 662 597 662 c 2
 598 662 l 2
 622 662 634 645 615 591 c 0
 512 306 327 -16 175 -16 c 0
 73 -16 64 75 57 246 c 2
 48 480 l 2
 41 568 43 638 57 697 c 0
 92 847 207 932 353 994 c 0
 502 1058 574 1123 597 1222 c 0
 614 1296 598 1340 532 1340 c 0
 479 1340 444 1299 430 1239 c 0
 417 1183 417 1140 419 1107 c 2
 461 87 l 2
 463 37 441 -15 397 -15 c 2
 394 -15 l 2
 360 -15 346 6 344 57 c 2
EndSplineSet
EndChar

StartChar: period
Encoding: 46 46 1
Width: 290
VWidth: 1920
Flags: HMW
LayerCount: 2
Fore
SplineSet
47 -15 m 6
 44 -15 l 6
 -8 -15 -31 23 -31 90 c 6
 -31 99 l 6
 -31 166 -8 204 44 204 c 6
 47 204 l 6
 99 204 122 166 122 99 c 6
 122 90 l 6
 122 23 99 -15 47 -15 c 6
EndSplineSet
EndChar

StartChar: zero
Encoding: 48 48 2
Width: 448
VWidth: 1920
Flags: HMW
LayerCount: 2
Fore
SplineSet
-17 244 m 2
 194 1155 l 2
 232 1318 283 1417 431 1417 c 0
 579 1417 587 1318 549 1155 c 2
 338 244 l 2
 300 81 248 -18 100 -18 c 0
 -48 -18 -55 81 -17 244 c 2
100 254 m 2
 73 136 56 64 119 64 c 0
 182 64 200 136 227 254 c 2
 432 1145 l 2
 459 1263 475 1334 412 1334 c 0
 349 1334 332 1263 305 1145 c 2
 100 254 l 2
EndSplineSet
EndChar

StartChar: one
Encoding: 49 49 3
Width: 302
VWidth: 1920
Flags: HMW
LayerCount: 2
Fore
SplineSet
320 1388 m 0
 332 1395 343 1398 357 1412 c 0
 366 1420 377 1432 392 1432 c 2
 394 1432 l 2
 409 1432 415 1418 412 1403 c 2
 99 48 l 2
 89 4 58 -15 31 -15 c 2
 25 -15 l 2
 -2 -15 -25 4 -15 48 c 2
 283 1337 l 2
 290 1369 305 1379 320 1388 c 0
EndSplineSet
EndChar

StartChar: two
Encoding: 50 50 4
Width: 418
VWidth: 1920
Flags: HMW
LayerCount: 2
Fore
SplineSet
-56 118 m 2
 29 485 296 658 366 963 c 2
 407 1141 l 2
 436 1267 448 1329 398 1329 c 0
 352 1329 330 1264 302 1143 c 2
 238 867 l 2
 228 823 207 797 173 797 c 2
 164 797 l 2
 130 797 119 823 129 867 c 2
 192 1139 l 2
 233 1318 286 1417 419 1417 c 0
 551 1417 561 1336 515 1137 c 2
 485 1004 l 2
 401 640 140 464 71 164 c 2
 56 98 l 1
 248 98 l 6
 282 98 305 86 297 52 c 6
 295 45 l 6
 287 11 259 0 225 0 c 6
 -78 0 l 2
 -82 0 -83 1 -82 5 c 2
 -56 118 l 2
EndSplineSet
EndChar

StartChar: three
Encoding: 51 51 5
Width: 464
VWidth: 1920
Flags: HMW
LayerCount: 2
Fore
SplineSet
72 428 m 2
 75 428 l 2
 109 428 123 401 113 357 c 2
 72 176 l 2
 58 116 61 70 125 70 c 0
 193 70 220 122 235 187 c 2
 322 562 l 2
 336 624 324 664 254 664 c 2
 243 664 l 2
 204 664 198 683 204 707 c 2
 205 709 l 2
 211 733 224 751 263 751 c 2
 264 751 l 2
 329 751 352 794 365 852 c 2
 452 1232 l 2
 465 1288 466 1328 412 1328 c 0
 352 1328 338 1280 323 1216 c 2
 274 1007 l 2
 264 963 238 937 204 937 c 2
 201 937 l 2
 167 937 155 963 165 1007 c 2
 215 1220 l 2
 242 1337 301 1417 435 1417 c 0
 569 1417 596 1349 569 1234 c 2
 486 875 l 2
 456 745 390 700 256 700 c 1
 271 725 l 1
 405 725 463 676 433 545 c 2
 350 185 l 2
 321 59 251 -18 97 -18 c 0
 -33 -18 -69 55 -42 173 c 2
 0 357 l 2
 10 401 38 428 72 428 c 2
EndSplineSet
EndChar

StartChar: four
Encoding: 52 52 6
Width: 461
VWidth: 1920
Flags: HMW
LayerCount: 2
Fore
SplineSet
439 416 m 2
 437 409 l 2
 431 385 412 369 358 369 c 2
 318 369 l 1
 246 55 l 2
 236 11 209 -15 175 -15 c 2
 171 -15 l 2
 137 -15 122 11 132 55 c 2
 204 369 l 1
 53 369 l 2
 9 369 -7 390 3 434 c 2
 5 442 l 2
 11 466 20 485 31 508 c 2
 456 1365 l 2
 471 1396 491 1415 515 1415 c 2
 517 1415 l 2
 551 1415 554 1389 546 1355 c 2
 338 456 l 1
 378 456 l 2
 432 456 445 440 439 416 c 2
229 456 m 1
 367 1052 l 1
 83 456 l 1
 229 456 l 1
EndSplineSet
EndChar

StartChar: five
Encoding: 53 53 7
Width: 425
VWidth: 1920
Flags: HMW
LayerCount: 2
Fore
SplineSet
69 379 m 2
 73 379 l 2
 106 379 120 363 110 320 c 0
 68 138 58 64 100 64 c 0
 142 64 182 166 219 326 c 2
 286 614 l 2
 333 818 338 848 307 848 c 0
 282 848 268 817 216 696 c 0
 197 652 175 625 142 625 c 2
 131 625 l 2
 97 625 96 662 106 696 c 2
 290 1355 l 2
 300 1388 314 1400 348 1400 c 2
 542 1400 l 2
 576 1400 585 1392 577 1358 c 2
 576 1357 l 2
 567 1319 550 1312 462 1312 c 2
 370 1312 l 1
 192 690 l 1
 184 690 l 1
 219 810 281 937 365 937 c 0
 441 937 455 855 397 603 c 2
 328 305 l 2
 275 77 206 -17 88 -17 c 0
 -26 -17 -46 51 6 319 c 0
 14 363 35 379 69 379 c 2
EndSplineSet
EndChar

StartChar: six
Encoding: 54 54 8
Width: 486
VWidth: 1920
Flags: HMW
LayerCount: 2
Fore
SplineSet
288 713 m 0
 241 713 206 681 185 588 c 2
 177 554 l 1
 156 602 l 1
 186 734 239 794 339 794 c 0
 460 794 475 712 442 570 c 2
 359 212 l 2
 325 66 268 -18 124 -18 c 0
 -50 -18 -43 84 -0 272 c 2
 196 1121 l 2
 242 1320 295 1417 440 1417 c 0
 586 1417 589 1321 557 1184 c 2
 515 999 l 2
 505 955 481 929 447 929 c 2
 444 929 l 2
 410 929 401 955 411 999 c 2
 453 1182 l 2
 471 1261 485 1328 425 1328 c 0
 366 1328 341 1267 307 1118 c 2
 100 221 l 2
 78 125 70 71 138 71 c 0
 212 71 225 127 246 218 c 2
 328 571 l 2
 349 664 352 713 288 713 c 0
EndSplineSet
EndChar

StartChar: seven
Encoding: 55 55 9
Width: 374
VWidth: 1920
Flags: HMW
LayerCount: 2
Fore
SplineSet
555 1335 m 2
 89 55 l 2
 70 2 47 -15 13 -15 c 2
 5 -15 l 2
 -29 -15 -40 3 -20 55 c 2
 455 1302 l 1
 260 1302 l 2
 216 1302 204 1316 212 1350 c 2
 212 1352 l 2
 220 1386 238 1400 282 1400 c 2
 514 1400 l 2
 558 1400 571 1378 555 1335 c 2
EndSplineSet
EndChar

StartChar: eight
Encoding: 56 56 10
Width: 469
VWidth: 1920
Flags: HMW
LayerCount: 2
Fore
SplineSet
130 68 m 0
 191 68 203 108 219 177 c 2
 306 556 l 2
 322 626 329 665 268 665 c 0
 207 665 194 626 178 556 c 2
 91 177 l 2
 75 108 69 68 130 68 c 0
288 752 m 0
 322 752 351 789 366 852 c 2
 455 1238 l 2
 468 1296 455 1332 422 1332 c 0
 389 1332 359 1296 346 1238 c 2
 257 852 l 2
 242 789 254 752 288 752 c 0
296 721 m 1
 445 721 443 651 415 531 c 2
 334 180 l 2
 304 52 273 -18 110 -18 c 0
 -50 -18 -52 52 -22 180 c 2
 59 531 l 2
 87 651 119 721 265 721 c 1
 262 701 l 1
 141 704 121 763 148 879 c 2
 229 1232 l 2
 256 1349 301 1417 441 1417 c 0
 584 1417 593 1349 566 1232 c 2
 485 879 l 2
 458 763 417 704 291 701 c 1
 296 721 l 1
EndSplineSet
EndChar

StartChar: nine
Encoding: 57 57 11
Width: 469
VWidth: 1920
Flags: HMW
LayerCount: 2
Fore
SplineSet
273 686 m 0
 311 686 346 718 367 811 c 2
 375 845 l 1
 396 797 l 1
 366 665 314 605 222 605 c 0
 101 605 96 688 129 830 c 2
 211 1187 l 2
 245 1333 293 1417 437 1417 c 0
 611 1417 595 1315 552 1127 c 2
 356 278 l 2
 310 79 257 -18 112 -18 c 0
 -34 -18 -37 78 -5 215 c 2
 35 390 l 6
 47 444 70 470 104 470 c 2
 107 470 l 2
 141 470 150 444 138 390 c 6
 98 217 l 2
 80 138 66 71 127 71 c 0
 187 71 211 132 245 281 c 2
 452 1178 l 2
 474 1274 482 1328 423 1328 c 0
 358 1328 345 1272 324 1181 c 2
 242 828 l 2
 221 735 217 686 273 686 c 0
EndSplineSet
EndChar

StartChar: A
Encoding: 65 65 12
Width: 455
VWidth: 960
Flags: HMW
AnchorPoint: "ogonek" 255 0 basechar 0
AnchorPoint: "bottom" 102 0 basechar 0
AnchorPoint: "top" 425 1400 basechar 0
LayerCount: 2
Fore
SplineSet
105 498 m 5
 320 498 l 5
 301 417 l 5
 86 417 l 5
 105 498 l 5
384 1250 m 5
 15 55 l 6
 -1 2 -29 -15 -53 -15 c 6
 -57 -15 l 6
 -81 -15 -98 12 -84 55 c 6
 336 1345 l 6
 350 1388 369 1415 403 1415 c 6
 457 1415 l 6
 491 1415 498 1388 492 1345 c 6
 326 55 l 6
 320 12 296 -15 262 -15 c 6
 252 -15 l 6
 218 -15 200 11 206 55 c 6
 384 1250 l 5
EndSplineSet
EndChar

StartChar: B
Encoding: 66 66 13
Width: 486
VWidth: 960
Flags: HMW
AnchorPoint: "top" 435 1400 basechar 0
AnchorPoint: "bottom" 112 0 basechar 0
LayerCount: 2
Fore
SplineSet
245 748 m 1
 297 748 l 2
 342 748 376 801 406 933 c 2
 453 1133 l 2
 483 1265 473 1312 427 1312 c 2
 375 1312 l 1
 245 748 l 1
308 725 m 1
 401 725 483 673 438 478 c 2
 386 250 l 2
 340 49 261 0 142 0 c 2
 14 0 l 2
 -30 0 -38 11 -28 55 c 2
 270 1345 l 2
 280 1389 293 1400 337 1400 c 2
 455 1400 l 2
 574 1400 617 1342 574 1156 c 2
 524 942 l 2
 481 756 386 700 293 700 c 1
 308 725 l 1
283 667 m 2
 226 667 l 1
 92 88 l 1
 149 88 l 2
 216 88 242 136 273 272 c 2
 320 477 l 2
 353 622 351 667 283 667 c 2
EndSplineSet
EndChar

StartChar: C
Encoding: 67 67 14
Width: 500
VWidth: 960
Flags: HMW
AnchorPoint: "top" 455 1400 basechar 0
AnchorPoint: "bottom" 112 0 basechar 0
LayerCount: 2
Fore
SplineSet
461 573 m 0
 445.109611846 499.82292123 427 429 404 332 c 0
 348 96 265 -18 114 -18 c 0
 -58 -18 -43 127 10 358 c 2
 168 1042 l 2
 225 1290 299 1418 451 1418 c 0
 601 1418 629 1273 575 1092 c 0
 558.347036681 1036.18173406 524.595703125 947.685546875 479 886 c 0
 455.142910897 853.724204535 436 833 412 833 c 2
 408 833 l 2
 374 833 364.359249817 862.730510031 377 886 c 0
 531.978191255 1171.28872216 513 1323 440 1323 c 0
 367 1323 330 1231 287 1046 c 2
 127 349 l 2
 89 183 70 77 144 77 c 0
 220 77 257.291249555 133.814980433 363 573 c 0
 373.299096485 615.789351614 390 638 416 638 c 2
 420 638 l 2
 449 638 470.339399696 616.009017814 461 573 c 0
EndSplineSet
EndChar

StartChar: D
Encoding: 68 68 15
Width: 506
VWidth: 960
Flags: HMW
AnchorPoint: "top" 430 1400 basechar 0
AnchorPoint: "bottom" 92 0 basechar 0
LayerCount: 2
Fore
SplineSet
110 0 m 2
 14 0 l 6
 -30 0 -38 11 -28 55 c 6
 270 1345 l 2
 280 1389 293 1400 337 1400 c 2
 433 1400 l 2
 609 1400 634 1276 574 1018 c 2
 425 374 l 2
 365 116 306 0 110 0 c 2
132 88 m 2
 216 88 258 163 306 369 c 2
 457 1022 l 2
 505 1228 499 1312 415 1312 c 2
 375 1312 l 1
 92 88 l 1
 132 88 l 2
EndSplineSet
EndChar

StartChar: E
Encoding: 69 69 16
Width: 440
VWidth: 960
Flags: HMW
AnchorPoint: "ogonek" 230 0 basechar 0
AnchorPoint: "top" 445 1400 basechar 0
AnchorPoint: "bottom" 122 0 basechar 0
LayerCount: 2
Fore
SplineSet
245 748 m 1
 331 748 l 2
 365 748 377 732 371 708 c 2
 371 707 l 2
 365 683 346 667 312 667 c 2
 226 667 l 1
 92 88 l 1
 251 88 l 2
 295 88 309 79 301 45 c 2
 301 43 l 2
 293 9 275 0 231 0 c 2
 14 0 l 2
 -30 0 -38 11 -28 55 c 2
 270 1345 l 2
 280 1389 293 1400 337 1400 c 2
 544 1400 l 2
 588 1400 601 1384 595 1360 c 2
 594 1357 l 2
 588 1333 568 1312 524 1312 c 2
 375 1312 l 1
 245 748 l 1
EndSplineSet
EndChar

StartChar: F
Encoding: 70 70 17
Width: 395
VWidth: 960
Flags: HMW
AnchorPoint: "top" 425 1400 basechar 0
AnchorPoint: "bottom" 102 0 basechar 0
LayerCount: 2
Fore
SplineSet
245 749 m 1
 336 749 l 2
 370 749 383 734 377 710 c 2
 376 708 l 2
 370 684 351 668 317 668 c 2
 226 668 l 1
 85 55 l 2
 77 21 49 -15 15 -15 c 2
 11 -15 l 2
 -23 -15 -36 21 -28 55 c 2
 270 1345 l 2
 280 1389 293 1400 337 1400 c 2
 523 1400 l 2
 567 1400 580 1384 574 1360 c 2
 572 1353 l 2
 566 1329 547 1312 503 1312 c 2
 375 1312 l 1
 245 749 l 1
EndSplineSet
EndChar

StartChar: G
Encoding: 71 71 18
Width: 503
VWidth: 960
Flags: HMW
AnchorPoint: "top" 460 1400 basechar 0
AnchorPoint: "bottom" 138 0 basechar 0
LayerCount: 2
Fore
SplineSet
293 644 m 2
 295 652 l 2
 301 676 319 687 363 687 c 2
 436 687 l 2
 480 687 488 676 478 632 c 2
 342 45 l 2
 334 11 323 -15 299 -15 c 2
 295 -15 l 2
 271 -15 268 11 272 45 c 2
 294 228 l 1
 414 639 l 1
 297 175 261 -18 96 -18 c 0
 -60 -18 -52 93 15 383 c 2
 162 1018 l 2
 221 1273 281 1418 451 1418 c 0
 604 1418 613 1308 571 1120 c 0
 553 1040 540 978 521 897 c 0
 513 863 489 848 465 848 c 2
 460 848 l 2
 436 848 418 863 426 897 c 0
 515 1283 518 1333 437 1333 c 0
 357 1333 327 1216 282 1022 c 2
 133 378 l 2
 80 150 73 67 143 67 c 0
 211 67 264 183 381 637 c 1
 387 608 l 1
 344 608 l 2
 300 608 287 620 293 644 c 2
EndSplineSet
EndChar

StartChar: H
Encoding: 72 72 19
Width: 505
VWidth: 960
Flags: HMW
AnchorPoint: "top" 450 1400 basechar 0
AnchorPoint: "bottom" 128 0 basechar 0
LayerCount: 2
Fore
SplineSet
583 1415 m 2
 587 1415 l 2
 621 1415 636 1389 626 1345 c 2
 328 55 l 2
 318 11 291 -15 257 -15 c 2
 253 -15 l 2
 219 -15 204 11 214 55 c 2
 354 664 l 1
 217 664 l 1
 77 55 l 2
 67 11 40 -15 6 -15 c 2
 2 -15 l 2
 -32 -15 -47 11 -37 55 c 2
 261 1345 l 18
 271 1389 298 1415 332 1415 c 10
 336 1415 l 18
 370 1415 385 1389 375 1345 c 10
 237 751 l 1
 374 751 l 1
 512 1345 l 2
 522 1389 549 1415 583 1415 c 2
EndSplineSet
EndChar

StartChar: I
Encoding: 73 73 20
Width: 280
VWidth: 960
Flags: HMW
AnchorPoint: "ogonek" 20 0 basechar 0
AnchorPoint: "top" 343 1400 basechar 0
AnchorPoint: "bottom" 20 0 basechar 0
LayerCount: 2
Fore
SplineSet
345 1415 m 14
 349 1415 l 22
 383 1415 398 1389 388 1345 c 10
 90 55 l 18
 80 11 53 -15 19 -15 c 10
 15 -15 l 18
 -19 -15 -34 11 -24 55 c 10
 274 1345 l 18
 284 1389 311 1415 345 1415 c 14
EndSplineSet
EndChar

StartChar: J
Encoding: 74 74 21
Width: 408
VWidth: 960
Flags: HMW
AnchorPoint: "top" 467 1400 basechar 0
AnchorPoint: "bottom" 45 0 basechar 0
LayerCount: 2
Fore
SplineSet
461 1415 m 2
 464 1415 l 2
 498 1415 525.699327632 1388.99146662 516 1347 c 2
 267 269 l 2
 219 59 179 -18 50 -18 c 0
 -62 -18 -100.379336341 65.3439365828 -31 239 c 2
 136 657 l 2
 139.9274627 666.83041562 147 678 162 678 c 2
 163 678 l 2
 177 678 186.66922977 665.574793473 181 647 c 2
 58 244 l 2
 15.2017993832 103.717009089 30 74 60 74 c 0
 94 74 109 96 145 254 c 2
 397 1347 l 2
 406.683269639 1388.99926078 427 1415 461 1415 c 2
EndSplineSet
EndChar

StartChar: K
Encoding: 75 75 22
Width: 463
VWidth: 960
Flags: HMW
AnchorPoint: "top" 455 1400 basechar 0
AnchorPoint: "bottom" 132 0 basechar 0
LayerCount: 2
Fore
SplineSet
332 1415 m 10
 336 1415 l 18
 370 1415 385 1389 375 1345 c 10
 77 55 l 18
 67 11 40 -15 6 -15 c 10
 2 -15 l 18
 -32 -15 -47 11 -37 55 c 10
 261 1345 l 18
 271 1389 298 1415 332 1415 c 10
251 746 m 1
 350 824 l 1
 338 55 l 2
 337 12 321 -15 277 -15 c 2
 275 -15 l 2
 231 -15 211 12 213 55 c 2
 251 746 l 1
530 1345 m 2
 549 1385 568 1415 603 1415 c 2
 607 1415 l 2
 643 1415 649 1387 627 1345 c 2
 277 660 l 1
 266 690 l 1
 155 463 l 1
 124 518 l 1
 530 1345 l 2
EndSplineSet
EndChar

StartChar: L
Encoding: 76 76 23
Width: 349
VWidth: 960
Flags: HMW
AnchorPoint: "top" 335 1400 basechar 0
AnchorPoint: "bottom" 92 0 basechar 0
LayerCount: 2
Fore
SplineSet
332 1415 m 2
 336 1415 l 2
 380 1415 385 1389 375 1345 c 2
 84 88 l 25
 165 88 l 2
 209 88 234 81 226 47 c 2
 224 40 l 2
 216 6 189 0 145 0 c 2
 15 0 l 2
 -39 0 -47 11 -35 65 c 2
 261 1345 l 2
 271 1389 288 1415 332 1415 c 2
EndSplineSet
EndChar

StartChar: M
Encoding: 77 77 24
Width: 627
VWidth: 960
Flags: HMW
AnchorPoint: "top" 510 1400 basechar 0
AnchorPoint: "bottom" 187 0 basechar 0
LayerCount: 2
Fore
SplineSet
298 1137 m 5
 49 55 l 6
 39 11 17 -15 -7 -15 c 6
 -14 -15 l 6
 -38 -15 -48 11 -38 55 c 6
 255 1325 l 6
 267 1379 297 1415 351 1415 c 6
 358 1415 l 6
 412 1415 419 1389 412 1335 c 6
 288 396 l 5
 599 1335 l 6
 620 1398 647 1415 691 1415 c 6
 699 1415 l 6
 753 1415 759 1389 744 1325 c 6
 451 55 l 6
 441 11 418 -15 384 -15 c 6
 381 -15 l 6
 347 -15 337 11 347 55 c 6
 599 1149 l 5
 228 35 l 6
 218 3 205 -15 187 -15 c 6
 185 -15 l 6
 167 -15 163 3 166 35 c 6
 298 1137 l 5
EndSplineSet
EndChar

StartChar: N
Encoding: 78 78 25
Width: 502
VWidth: 960
Flags: HMW
AnchorPoint: "top" 470 1400 basechar 0
AnchorPoint: "bottom" 142 0 basechar 0
LayerCount: 2
Fore
SplineSet
588 1415 m 6
 596 1415 l 6
 620 1415 635 1389 625 1345 c 6
 327 55 l 6
 317 11 300 -15 276 -15 c 6
 275 -15 l 6
 251 -15 242 12 244 55 c 6
 297 1174 l 5
 317 1174 l 5
 59 55 l 6
 49 11 32 -15 -2 -15 c 6
 -9 -15 l 6
 -43 -15 -48 11 -38 55 c 6
 260 1345 l 6
 270 1389 302 1415 336 1415 c 6
 341 1415 l 6
 375 1415 396 1388 393 1345 c 6
 338 443 l 5
 318 443 l 5
 527 1345 l 6
 537 1389 564 1415 588 1415 c 6
EndSplineSet
EndChar

StartChar: O
Encoding: 79 79 26
Width: 502
VWidth: 960
Flags: HMW
AnchorPoint: "top" 455 1400 basechar 0
AnchorPoint: "bottom" 132 0 basechar 0
LayerCount: 2
Fore
SplineSet
-0 315 m 2
 178 1086 l 2
 233 1323 296 1418 448 1418 c 0
 601 1418 641 1322 587 1086 c 2
 409 315 l 2
 355 79 289 -18 137 -18 c 4
 -15 -18 -55 78 -0 315 c 2
115 299 m 2
 72 114 86 64 146 64 c 0
 207 64 244 115 286 299 c 2
 471 1101 l 2
 513 1285 500 1336 439 1336 c 0
 379 1336 343 1286 300 1101 c 2
 115 299 l 2
EndSplineSet
EndChar

StartChar: P
Encoding: 80 80 27
Width: 456
VWidth: 960
Flags: HMW
AnchorPoint: "top" 425 1400 basechar 0
AnchorPoint: "bottom" 28 0 basechar 0
LayerCount: 2
Fore
SplineSet
375 1312 m 1
 233 699 l 1
 257 699 l 2
 314 699 344 740 370 851 c 2
 442 1160 l 2
 468 1271 456 1312 399 1312 c 2
 375 1312 l 1
409 1400 m 2
 539 1400 599 1347 552 1145 c 2
 489 872 l 2
 442 670 355 618 229 618 c 2
 215 618 l 1
 85 55 l 2
 75 11 59 -15 15 -15 c 2
 11 -15 l 2
 -33 -15 -38 11 -28 55 c 2
 267 1335 l 2
 279 1389 293 1400 347 1400 c 2
 409 1400 l 2
EndSplineSet
EndChar

StartChar: Q
Encoding: 81 81 28
Width: 608
VWidth: 960
Flags: HMW
AnchorPoint: "top" 475 1400 basechar 0
AnchorPoint: "bottom" 152 0 basechar 0
LayerCount: 2
Fore
SplineSet
482 51 m 2
 481 49 l 2
 473 15 454 -6 418 -9 c 0
 334 -17 292 46 323 179 c 1
 406 294 l 1
 366 119 301 -18 139 -18 c 0
 -34 -18 -28 120 12 295 c 2
 199 1105 l 2
 239 1280 301 1418 484 1418 c 0
 667 1418 666 1280 626 1105 c 2
 414 188 l 2
 398 118 415 88 449 88 c 0
 475 88 487 74 482 51 c 2
316 277 m 2
 511 1124 l 2
 540 1250 546 1336 465 1336 c 0
 384 1336 351 1250 322 1124 c 2
 127 277 l 2
 98 150 91 64 172 64 c 0
 253 64 287 150 316 277 c 2
EndSplineSet
EndChar

StartChar: R
Encoding: 82 82 29
Width: 507
VWidth: 960
Flags: HMW
AnchorPoint: "top" 440 1400 basechar 0
AnchorPoint: "bottom" 118 0 basechar 0
LayerCount: 2
Fore
SplineSet
375 1312 m 5
 243 742 l 5
 281 742 l 6
 341 742 373 784 399 895 c 6
 460 1159 l 6
 485 1269 473 1312 413 1312 c 6
 375 1312 l 5
434 1400 m 6
 571 1400 616 1327 575 1150 c 6
 523 923 l 6
 482 744 393 684 269 684 c 5
 276 714 l 5
 402 714 463 678 433 549 c 6
 358 225 l 262
 343 160 336 87 346 54 c 4
 351 40 352 28 350 21 c 6
 349 18 l 6
 344 -3 321 -15 294 -15 c 6
 289 -15 l 6
 259 -15 238 2 232 24 c 4
 217 75 232 175 244 225 c 262
 324 571 l 6
 337 629 330 661 262 661 c 6
 225 661 l 5
 85 55 l 6
 75 11 59 -15 15 -15 c 6
 11 -15 l 6
 -33 -15 -38 11 -28 55 c 6
 265 1325 l 6
 277 1379 293 1400 357 1400 c 6
 434 1400 l 6
EndSplineSet
EndChar

StartChar: S
Encoding: 83 83 30
Width: 446
VWidth: 960
Flags: HMW
AnchorPoint: "top" 425 1400 basechar 0
AnchorPoint: "bottom" 112 0 basechar 0
LayerCount: 2
Fore
SplineSet
153 539 m 2
 155 539 l 2
 176 539 190.779894263 519.203395946 176 489 c 0
 128.992796074 392.938609628 100.835146768 310.780166068 74 231 c 0
 37 121 68 72 113 72 c 0
 155 72 208 117 249 293 c 0
 283 439 245 573 219 686 c 0
 187 825 164 958 211 1160 c 0
 257 1361 331 1418 437 1418 c 0
 538 1418 603.962937967 1311.15198956 503 1080 c 2
 438 931 l 2
 425.219405131 901.70294407 412 887 389 887 c 2
 387 887 l 2
 365 887 350.932222602 908.150759395 361 931 c 0
 391.195178637 999.529216979 416 1063 435 1145 c 0
 473 1311 457 1334 422 1334 c 0
 387 1334 352 1299 320 1162 c 0
 282 999 299 875 332 744 c 0
 362 626 402 481 359 296 c 0
 305 64 215 -18 95 -18 c 0
 -22 -18 -54.351926898 116.148449164 0 245 c 2
 103 489 l 2
 118.915845748 526.703556918 132 539 153 539 c 2
EndSplineSet
EndChar

StartChar: T
Encoding: 84 84 31
Width: 405
VWidth: 960
Flags: HMW
AnchorPoint: "top" 405 1400 basechar 0
AnchorPoint: "bottom" 42 0 basechar 0
LayerCount: 2
Fore
SplineSet
275 1400 m 2
 535 1400 l 2
 589 1400 605 1394 597 1360 c 2
 595 1353 l 2
 587 1319 569 1312 515 1312 c 2
 442 1312 l 1
 152 55 l 2
 142 11 125 -15 81 -15 c 2
 78 -15 l 2
 34 -15 29 11 39 55 c 2
 329 1312 l 1
 255 1312 l 2
 201 1312 187 1319 195 1353 c 2
 197 1360 l 2
 205 1394 221 1400 275 1400 c 2
EndSplineSet
EndChar

StartChar: U
Encoding: 85 85 32
Width: 501
VWidth: 960
Flags: HMW
AnchorPoint: "ogonek" 190 0 basechar 0
AnchorPoint: "top" 465 1400 basechar 0
AnchorPoint: "bottom" 142 0 basechar 0
LayerCount: 2
Fore
SplineSet
259 219 m 2
 519 1345 l 2
 529 1389 546 1415 580 1415 c 2
 587 1415 l 2
 621 1415 627 1389 617 1345 c 2
 363 246 l 2
 326 86 289 -18 136 -18 c 0
 -2 -18 -31 55 14 250 c 2
 267 1345 l 2
 277 1389 293 1415 337 1415 c 2
 346 1415 l 2
 390 1415 395 1389 385 1345 c 2
 128 232 l 2
 98 104 109 64 159 64 c 0
 213 64 235 113 259 219 c 2
EndSplineSet
EndChar

StartChar: V
Encoding: 86 86 33
Width: 454
VWidth: 960
Flags: HMW
AnchorPoint: "top" 430 1400 basechar 0
AnchorPoint: "bottom" 108 0 basechar 0
LayerCount: 2
Fore
SplineSet
151 150 m 1
 520 1345 l 2
 536 1398 564 1415 588 1415 c 2
 592 1415 l 2
 616 1415 633 1388 619 1345 c 2
 199 55 l 2
 185 12 166 -15 132 -15 c 2
 78 -15 l 2
 44 -15 37 12 43 55 c 2
 209 1345 l 2
 215 1388 239 1415 273 1415 c 2
 283 1415 l 2
 317 1415 335 1389 329 1345 c 2
 151 150 l 1
EndSplineSet
EndChar

StartChar: W
Encoding: 87 87 34
Width: 714
VWidth: 960
Flags: HMW
AnchorPoint: "top" 575 1400 basechar 0
AnchorPoint: "bottom" 252 0 basechar 0
LayerCount: 2
Fore
SplineSet
152 180 m 1
 514 1345 l 2
 527 1388 546 1415 580 1415 c 2
 591 1415 l 2
 625 1415 632 1388 625 1345 c 2
 439 171 l 1
 802 1345 l 2
 815 1388 835 1415 869 1415 c 2
 872 1415 l 2
 906 1415 909 1388 895 1345 c 2
 480 55 l 2
 466 11 437 -15 393 -15 c 2
 381 -15 l 2
 338 -15 319 11 326 55 c 2
 483 1036 l 1
 180 55 l 2
 167 11 137 -15 93 -15 c 2
 83 -15 l 2
 39 -15 22 11 28 55 c 2
 213 1345 l 2
 219 1388 245 1415 279 1415 c 2
 285 1415 l 2
 319 1415 337 1388 330 1345 c 2
 152 180 l 1
EndSplineSet
EndChar

StartChar: X
Encoding: 88 88 35
Width: 462
VWidth: 960
Flags: HMW
AnchorPoint: "top" 440 1400 basechar 0
AnchorPoint: "bottom" 118 0 basechar 0
LayerCount: 2
Fore
SplineSet
568 1415 m 2
 569 1415 l 2
 613 1415 622 1388 604 1345 c 2
 339 715 l 1
 323 65 l 2
 322 22 294 -15 250 -15 c 2
 248 -15 l 2
 204 -15 191 21 195 65 c 2
 249 602 l 1
 43 65 l 2
 26 22 -3 -15 -37 -15 c 6
 -44 -15 l 6
 -78 -15 -90 22 -70 65 c 2
 216 693 l 1
 238 1335 l 2
 240 1378 272 1415 316 1415 c 2
 317 1415 l 2
 361 1415 369 1379 364 1335 c 2
 303 802 l 1
 493 1345 l 2
 508 1389 524 1415 568 1415 c 2
EndSplineSet
EndChar

StartChar: Y
Encoding: 89 89 36
Width: 465
VWidth: 960
Flags: HMW
AnchorPoint: "top" 435 1400 basechar 0
AnchorPoint: "bottom" 112 0 basechar 0
LayerCount: 2
Fore
SplineSet
600 1415 m 2
 602 1415 l 2
 636 1415 646 1388 627 1345 c 2
 314 625 l 1
 183 55 l 2
 173 11 155 -15 111 -15 c 6
 108 -15 l 6
 64 -15 59 11 69 55 c 2
 200 625 l 1
 221 1345 l 2
 222 1388 258 1415 292 1415 c 2
 293 1415 l 2
 337 1415 348 1388 344 1345 c 2
 291 717 l 1
 528 1345 l 2
 544 1388 566 1415 600 1415 c 2
EndSplineSet
EndChar

StartChar: Z
Encoding: 90 90 37
Width: 403
VWidth: 960
Flags: HMW
AnchorPoint: "top" 420 1400 basechar 0
AnchorPoint: "bottom" 98 0 basechar 0
LayerCount: 2
Fore
SplineSet
-90 105 m 2
 441 1312 l 1
 301 1312 l 2
 237 1312 212 1319 220 1353 c 2
 222 1360 l 2
 230 1394 257 1400 321 1400 c 2
 489 1400 l 2
 563 1400 577 1367 545 1295 c 2
 16 88 l 1
 217 88 l 2
 261 88 286 81 278 47 c 2
 276 40 l 2
 268 6 241 0 197 0 c 2
 -33 0 l 2
 -117 0 -117 43 -90 105 c 2
EndSplineSet
EndChar

StartChar: a
Encoding: 97 97 38
Width: 378
VWidth: 960
Flags: HMW
AnchorPoint: "ogonek" 200 0 basechar 0
AnchorPoint: "top" 329 1050 basechar 0
AnchorPoint: "bottom" 83 0 basechar 0
LayerCount: 2
Fore
SplineSet
184 205 m 1
 151 60 101 -16 25 -16 c 0
 -65 -16 -85 54 -46 224 c 2
 91 817 l 2
 128 977 183 1059 269 1059 c 0
 351 1059 390 987 360 859 c 1
 306 846 l 1
 329 947 321 977 290 977 c 0
 255 977 231 929 208 830 c 2
 65 213 l 2
 42 114 39 67 74 67 c 0
 104 67 136 107 159 206 c 1
 184 205 l 1
272 42 m 2
 272 41 l 2
 272 27 265.457454715 -0.0258861019632 221 -9 c 0
 122.332586599 -28.9168533502 116 22 141 132 c 2
 329 944 l 25
 418 1043 l 2
 426.748335402 1052.73129444 438 1059 446 1059 c 2
 447 1059 l 2
 462 1059 466.310798982 1046.00482681 461 1023 c 2
 256 135 l 2
 241 72 248.317289741 69.3680118889 257 67 c 0
 268 64 272 54 272 42 c 2
EndSplineSet
EndChar

StartChar: b
Encoding: 98 98 39
Width: 441
VWidth: 960
Flags: HMW
LayerCount: 2
Fore
SplineSet
324 1465 m 2
 328 1465 l 2
 372 1465 377 1439 367 1395 c 2
 67 97 l 257
 19 29 l 2
 -5 -5 -20 -23 -45 -23 c 2
 -46 -23 l 2
 -61 -23 -72 -15 -66 12 c 2
 253 1395 l 2
 263 1439 280 1465 324 1465 c 2
214 845 m 1
 247 990 287 1067 373 1067 c 0
 463 1067 509 997 470 827 c 2
 331 224 l 2
 294 64 244 -18 148 -18 c 4
 56 -18 6 54 36 182 c 1
 90 195 l 1
 67 94 77 64 118 64 c 0
 163 64 192 112 215 211 c 2
 359 838 l 2
 382 937 375 984 330 984 c 0
 280 984 263 945 240 846 c 1
 214 845 l 1
EndSplineSet
EndChar

StartChar: c
Encoding: 99 99 40
Width: 373
VWidth: 960
Flags: HMW
AnchorPoint: "bottom" 78 0 basechar 0
AnchorPoint: "top" 317 1050 basechar 0
LayerCount: 2
Fore
SplineSet
307 340 m 0
 298.1875 299.5703125 290 269 273 202 c 0
 235 54 187 -18 80 -18 c 0
 -33 -18 -70 50 -30 224 c 2
 109 827 l 2
 145 984 189 1067 313 1067 c 0
 423 1067 450 994 419 851 c 0
 405 784 386.25542263 738.42228749 350 681 c 0
 335.556797566 658.124477878 323 627 289 627 c 2
 287 627 l 2
 254 627 254.907414432 656.904210814 269 680 c 0
 307.565202575 743.203007303 322 778 336 843 c 0
 358 942 351 982 311 982 c 0
 269 982 248 938 224 832 c 2
 82 218 l 2
 58 116 65 76 108 76 c 0
 147 76 171 113 196 209 c 0
 213 275 217.510742188 295.989257812 228 340 c 0
 242.563301428 401.104581086 254 424 277 424 c 2
 279 424 l 2
 303 424 320.379882812 401.3828125 307 340 c 0
EndSplineSet
EndChar

StartChar: d
Encoding: 100 100 41
Width: 441
VWidth: 960
Flags: HMW
LayerCount: 2
Fore
SplineSet
229 203 m 1
 196 58 155 -18 74 -18 c 4
 -13 -18 -65 54 -26 224 c 2
 113 827 l 2
 152 997 207 1067 294 1067 c 0
 375 1067 410 991 377 846 c 1
 350 846 l 1
 373 945 379 984 325 984 c 0
 275 984 251 937 228 838 c 2
 84 211 l 2
 61 112 63 64 113 64 c 0
 167 64 179 105 202 204 c 1
 229 203 l 1
592 1395 m 2
 283 55 l 2
 273 11 255 -15 221 -15 c 2
 220 -15 l 2
 186 -15 166 11 176 55 c 2
 188 110 l 1
 184 126 l 1
 477 1395 l 2
 487 1439 515 1465 549 1465 c 2
 552 1465 l 2
 586 1465 602 1439 592 1395 c 2
EndSplineSet
EndChar

StartChar: e
Encoding: 101 101 42
Width: 407
VWidth: 960
Flags: HMW
AnchorPoint: "ogonek" 119 30 basechar 0
AnchorPoint: "bottom" 84 0 basechar 0
AnchorPoint: "top" 327 1050 basechar 0
LayerCount: 2
Fore
SplineSet
331 360 m 0
 283 154 247 57 198 17 c 4
 161 -13 126 -18 86 -18 c 0
 -54 -18 -66 69 -29 230 c 2
 108 821 l 2
 144 977 188 1067 324 1067 c 0
 456 1067 472 971 447 850 c 0
 419 717 417 705 385 565 c 0
 373 513 347 491 293 491 c 2
 102 491 l 1
 117 554 l 1
 272 554 l 1
 357 933 371 994 314 994 c 0
 269 994 248 940 225 841 c 2
 79 209 l 2
 55 103 53 57 97 57 c 0
 142 57 173 138 202 260 c 0
 234 395 252 430 296 430 c 2
 300 430 l 2
 344 430 341 403 331 360 c 0
EndSplineSet
EndChar

StartChar: f
Encoding: 102 102 43
Width: 273
VWidth: 960
Flags: HMW
LayerCount: 2
Fore
SplineSet
307 974 m 2
 201 974 l 2
 157 974 141 985 141 1009 c 2
 141 1015 l 2
 141 1039 157 1050 201 1050 c 2
 307 1050 l 2
 351 1050 367 1039 367 1015 c 2
 367 1009 l 2
 367 985 351 974 307 974 c 2
267 1334 m 2
 291 1440 325 1469 421 1464 c 0
 456 1462 469 1450 463 1426 c 2
 463 1425 l 2
 455 1392 437 1386 421 1388 c 0
 400 1391 389 1378 375 1318 c 2
 -2 -315 l 2
 -12 -359 -30 -385 -74 -385 c 2
 -75 -385 l 2
 -119 -385 -124 -359 -114 -315 c 2
 267 1334 l 2
EndSplineSet
EndChar

StartChar: g
Encoding: 103 103 44
Width: 376
VWidth: 960
Flags: HMW
AnchorPoint: "top" 263 1075 basechar 0
LayerCount: 2
Fore
SplineSet
546 1225 m 4
 514 1088 400 1017 329 1017 c 5
 317 1036 l 5
 365 1036 395 1075 435 1206 c 4
 448 1249 464 1275 507 1275 c 6
 511 1275 l 6
 552 1275 552 1249 546 1225 c 4
142 162 m 6
 222 94 229 29 198 -104 c 4
 169 -228 111 -360 -12 -360 c 6
 -15 -360 l 6
 -102 -360 -153 -284 -115 -120 c 4
 -84 13 -24 101 64 101 c 5
 81 84 l 5
 37 83 11 -2 -9 -90 c 4
 -38 -215 -33 -282 -1 -282 c 6
 3 -282 l 6
 39 -282 74 -211 98 -108 c 4
 116 -32 126 20 79 64 c 6
 61 80 l 6
 25 113 -22 173 -6 242 c 4
 10 310 71 345 169 345 c 5
 152 316 l 5
 122 316 80 317 72 282 c 4
 65 253 81 214 107 192 c 6
 142 162 l 6
225 506 m 6
 307 860 l 6
 325 937 337 996 303 996 c 4
 262 996 245 934 228 860 c 6
 146 506 l 6
 129 432 117 370 158 370 c 4
 192 370 207 428 225 506 c 6
337 529 m 6
 308 402 275 297 158 297 c 4
 40 297 15 402 44 529 c 6
 116 842 l 6
 145 969 177 1067 295 1067 c 4
 412 1067 438 969 409 842 c 6
 337 529 l 6
EndSplineSet
EndChar

StartChar: h
Encoding: 104 104 45
Width: 426
VWidth: 960
Flags: HMW
AnchorPoint: "bottom" 85 0 basechar 0
AnchorPoint: "top" 333 1450 basechar 0
LayerCount: 2
Fore
SplineSet
334 1465 m 2
 337 1465 l 2
 381 1465 387 1439 377 1395 c 2
 68 55 l 2
 58 11 39 -15 -4 -15 c 2
 -7 -15 l 2
 -51 -15 -57 11 -47 55 c 2
 262 1395 l 2
 272 1439 290 1465 334 1465 c 2
240 877 m 1
 266 988 295 1067 380 1067 c 4
 458 1067 485 1008 460 901 c 2
 265 55 l 2
 255 11 239 -15 195 -15 c 2
 190 -15 l 2
 146 -15 142 11 152 55 c 2
 346 898 l 2
 360 957 360 990 328 990 c 0
 292 990 270 933 246 828 c 1
 240 877 l 1
EndSplineSet
EndChar

StartChar: i
Encoding: 105 105 46
Width: 233
VWidth: 960
Flags: HMW
AnchorPoint: "bottom" -7 0 basechar 0
AnchorPoint: "ogonek" -7 0 basechar 0
LayerCount: 2
Fore
SplineSet
365 1346 m 2
 354 1299 l 2
 339 1235 311 1204 277 1204 c 2
 272 1204 l 2
 238 1204 224 1235 239 1299 c 2
 250 1346 l 2
 265 1410 293 1441 327 1441 c 2
 332 1441 l 2
 366 1441 380 1410 365 1346 c 2
284 995 m 2
 67 55 l 2
 57 11 40 -15 -4 -15 c 2
 -8 -15 l 2
 -52 -15 -57 11 -47 55 c 2
 170 995 l 2
 180 1039 197 1065 241 1065 c 6
 245 1065 l 6
 289 1065 294 1039 284 995 c 2
EndSplineSet
EndChar

StartChar: j
Encoding: 106 106 47
Width: 233
VWidth: 960
Flags: HMW
LayerCount: 2
Fore
SplineSet
40 -59 m 6
 -9 -271 -56 -371 -155 -371 c 4
 -274 -371 -231.668923752 -199.206165653 -210 -137 c 4
 -198.467831323 -103.893972065 -180 -85 -161 -85 c 6
 -159 -85 l 6
 -141 -85 -131.935381224 -105.149647195 -144 -137 c 4
 -166.91083167 -197.484138395 -179 -284 -159 -284 c 4
 -141 -284 -103 -185 -74 -60 c 6
 170 996 l 6
 180.410804037 1041.05659452 205 1065 242 1065 c 6
 244 1065 l 6
 271 1065 294.419766648 1041.05267956 284 996 c 6
 40 -59 l 6
365 1346 m 2
 354 1299 l 2
 339 1235 311 1204 277 1204 c 2
 272 1204 l 2
 238 1204 224 1235 239 1299 c 2
 250 1346 l 2
 265 1410 293 1441 327 1441 c 2
 332 1441 l 2
 366 1441 380 1410 365 1346 c 2
EndSplineSet
EndChar

StartChar: k
Encoding: 107 107 48
Width: 416
VWidth: 960
Flags: HMW
LayerCount: 2
Fore
SplineSet
333 1465 m 6
 337 1465 l 6
 381 1465 386 1439 376 1395 c 6
 67 55 l 6
 57 11 39 -15 -4 -15 c 6
 -8 -15 l 6
 -52 -15 -57 11 -47 55 c 6
 262 1395 l 6
 272 1439 289 1465 333 1465 c 6
108 417 m 5
 394 995 l 6
 414 1036 427 1065 471 1065 c 6
 474 1065 l 6
 518 1065 522 1036 499 995 c 6
 124 352 l 5
 108 417 l 5
227 595 m 5
 314 718 l 5
 305 55 l 6
 304 13 282 -15 239 -15 c 6
 236 -15 l 6
 191 -15 182 12 185 55 c 6
 227 595 l 5
EndSplineSet
EndChar

StartChar: l
Encoding: 108 108 49
Width: 233
VWidth: 960
Flags: HMW
LayerCount: 2
Fore
SplineSet
333 1465 m 2
 337 1465 l 2
 381 1465 386 1439 376 1395 c 2
 67 55 l 2
 57 11 39 -15 -4 -15 c 2
 -8 -15 l 2
 -52 -15 -57 11 -47 55 c 2
 262 1395 l 2
 272 1439 289 1465 333 1465 c 2
EndSplineSet
EndChar

StartChar: m
Encoding: 109 109 50
Width: 564
VWidth: 960
Flags: HMW
LayerCount: 2
Fore
SplineSet
394 877 m 1
 420 988 452 1067 538 1067 c 4
 616 1067 631 1008 606 901 c 2
 411 55 l 2
 401 11 383 -15 339 -15 c 2
 337 -15 l 2
 293 -15 288 11 298 55 c 2
 493 901 l 2
 506 957 506 990 483 990 c 0
 460 990 434 936 410 831 c 1
 394 877 l 1
227 1065 m 2
 235 1065 l 2
 279 1065 279 1039 269 995 c 2
 256 941 l 1
 258 927 l 1
 57 55 l 2
 47 11 30 -15 -14 -15 c 2
 -17 -15 l 2
 -61 -15 -66 11 -56 55 c 2
 161 995 l 2
 171 1039 183 1065 227 1065 c 2
230 877 m 1
 256 988 281 1067 361 1067 c 4
 450 1067 451 1008 426 901 c 2
 231 55 l 2
 221 11 199 -15 165 -15 c 2
 158 -15 l 2
 124 -15 114 11 124 55 c 2
 319 901 l 2
 332 957 330 990 308 990 c 0
 285 990 260 936 236 831 c 1
 230 877 l 1
EndSplineSet
EndChar

StartChar: n
Encoding: 110 110 51
Width: 409
VWidth: 960
Flags: HMW
AnchorPoint: "bottom" 85 0 basechar 0
AnchorPoint: "top" 327 1050 basechar 0
LayerCount: 2
Fore
SplineSet
228 1065 m 2
 237 1065 l 2
 281 1065 280 1039 270 995 c 2
 256 934 l 1
 259 921 l 1
 59 55 l 2
 49 11 31 -15 -13 -15 c 2
 -16 -15 l 2
 -60 -15 -66 11 -56 55 c 2
 161 995 l 2
 171 1039 184 1065 228 1065 c 2
231 877 m 1
 257 988 286 1067 371 1067 c 4
 449 1067 476 1008 451 901 c 2
 256 55 l 2
 246 11 230 -15 186 -15 c 2
 181 -15 l 2
 137 -15 133 11 143 55 c 2
 337 898 l 2
 351 957 351 990 319 990 c 0
 283 990 261 933 237 828 c 1
 231 877 l 1
EndSplineSet
EndChar

StartChar: o
Encoding: 111 111 52
Width: 418
VWidth: 960
Flags: HMW
AnchorPoint: "top" 329 1050 basechar 0
AnchorPoint: "bottom" 87 0 basechar 0
LayerCount: 2
Fore
SplineSet
-29 230 m 2
 108 821 l 2
 143 972 189 1067 325 1067 c 0
 461 1067 486 972 451 821 c 2
 314 230 l 2
 279 79 231 -18 95 -18 c 4
 -41 -18 -64 79 -29 230 c 2
81 209 m 2
 60 118 52 57 102 57 c 0
 152 57 171 118 192 209 c 2
 338 841 l 2
 359 932 368 994 318 994 c 0
 268 994 248 932 227 841 c 2
 81 209 l 2
EndSplineSet
EndChar

StartChar: p
Encoding: 112 112 53
Width: 441
VWidth: 960
Flags: HMW
LayerCount: 2
Fore
SplineSet
215 847 m 1
 248 992 299 1068 380 1068 c 0
 467 1068 509 996 470 826 c 2
 330 223 l 2
 291 53 236 -17 149 -17 c 4
 68 -17 33 59 66 204 c 1
 93 204 l 1
 70 105 64 66 118 66 c 0
 168 66 192 113 215 212 c 2
 360 839 l 2
 383 938 381 986 331 986 c 0
 277 986 264 945 241 846 c 1
 215 847 l 1
-139 -305 m 2
 161 995 l 2
 171 1039 189 1065 223 1065 c 2
 224 1065 l 2
 258 1065 278 1039 268 995 c 2
 255 940 l 1
 259 924 l 1
 -24 -305 l 2
 -34 -349 -63 -375 -97 -375 c 2
 -100 -375 l 2
 -134 -375 -149 -349 -139 -305 c 2
EndSplineSet
EndChar

StartChar: q
Encoding: 113 113 54
Width: 441
VWidth: 960
Flags: HMW
LayerCount: 2
Fore
SplineSet
128 -375 m 2
 124 -375 l 2
 80 -375 76 -349 86 -305 c 2
 376 953 l 257
 425 1021 l 2
 449 1055 464 1073 489 1073 c 2
 490 1073 l 2
 505 1073 516 1065 510 1038 c 2
 200 -305 l 2
 190 -349 172 -375 128 -375 c 2
229 205 m 1
 196 60 156 -17 70 -17 c 4
 -20 -17 -66 53 -27 223 c 2
 113 826 l 2
 150 986 200 1068 296 1068 c 0
 388 1068 437 996 407 868 c 1
 353 855 l 1
 376 956 367 986 326 986 c 0
 281 986 252 938 229 839 c 2
 84 212 l 2
 61 113 68 66 113 66 c 0
 163 66 180 105 203 204 c 1
 229 205 l 1
EndSplineSet
EndChar

StartChar: r
Encoding: 114 114 55
Width: 367
VWidth: 960
Flags: HMW
AnchorPoint: "top" 325 1050 basechar 0
AnchorPoint: "bottom" 7 0 basechar 0
LayerCount: 2
Fore
SplineSet
219 713 m 1
 212 770 l 1
 249 930 292 1060 384 1060 c 0
 473 1060 498.622947492 936.552324211 353 704 c 0
 333.681258198 673.148967356 320 648 297 648 c 2
 294 648 l 2
 268 648 262.941929871 670.798032223 277 704 c 0
 361.824742399 904.336770131 366 977 339 977 c 0
 311 977 252 858 219 713 c 1
237 1065 m 2
 242 1065 l 2
 286 1065 286 1039 276 995 c 2
 224 769 l 1
 231 764 l 1
 68 55 l 2
 58 11 41 -15 -3 -15 c 2
 -7 -15 l 2
 -51 -15 -56 11 -46 55 c 2
 171 995 l 2
 181 1039 193 1065 237 1065 c 2
EndSplineSet
EndChar

StartChar: s
Encoding: 115 115 56
Width: 368
VWidth: 960
Flags: HMW
AnchorPoint: "top" 302 1050 basechar 0
AnchorPoint: "bottom" 74 0 basechar 0
LayerCount: 2
Fore
SplineSet
87 414 m 2
 89 414 l 2
 113 414 132.758575029 391.575191197 114 364 c 0
 94.8076171875 335.787109375 66 301 50 228 c 0
 24 106 27 70 70 70 c 0
 105 70 139 123 161 219 c 0
 210 433 48 548 116 842 c 0
 158 1024 220 1067 306 1067 c 0
 395 1067 433 998 400 846 c 0
 388 789 372.648037758 755.852128721 352 706 c 0
 334.679033313 664.180672132 312 646 288 646 c 2
 284 646 l 2
 260 646 245.25468399 666.313315334 265 707 c 0
 285.542294947 749.328918736 296 766 310 827 c 0
 336 942 336 982 299 982 c 0
 272 982 245 952 219 840 c 0
 160 586 326 472 270 228 c 0
 234 72 182 -18 76 -18 c 0
 -28 -18 -76 39 -44 200 c 0
 -27 283 -0.199161736748 323.359406386 26 365 c 0
 43.7382263771 393.192897293 62 414 87 414 c 2
EndSplineSet
EndChar

StartChar: t
Encoding: 116 116 57
Width: 287
VWidth: 960
Flags: HMW
AnchorPoint: "bottom" 47 0 basechar 0
LayerCount: 2
Fore
SplineSet
319 974 m 6
 201 974 l 6
 157 974 141 985 141 1009 c 6
 141 1015 l 6
 141 1039 157 1050 201 1050 c 6
 319 1050 l 6
 363 1050 379 1039 379 1015 c 6
 379 1009 l 6
 379 985 363 974 319 974 c 6
157 42 m 2
 156 40 l 2
 148 6 131 -3 77 -5 c 0
 -5 -8 -32 22 -7 132 c 2
 274 1345 l 2
 284 1389 301 1415 345 1415 c 2
 346 1415 l 2
 390 1415 395 1389 385 1345 c 2
 107 145 l 2
 92 82 106 74 125 74 c 0
 147 74 165 75 157 42 c 2
EndSplineSet
EndChar

StartChar: u
Encoding: 117 117 58
Width: 409
VWidth: 960
Flags: HMW
AnchorPoint: "ogonek" 174 0 basechar 0
AnchorPoint: "bottom" 81 0 basechar 0
AnchorPoint: "top" 323 1050 basechar 0
LayerCount: 2
Fore
SplineSet
184 -15 m 6
 175 -15 l 6
 131 -15 132 11 142 55 c 6
 156 116 l 5
 153 129 l 5
 353 995 l 6
 363 1039 381 1065 425 1065 c 6
 428 1065 l 6
 472 1065 478 1039 468 995 c 6
 251 55 l 6
 241 11 228 -15 184 -15 c 6
180 173 m 1
 154 62 115 -17 30 -17 c 0
 -48 -17 -65 42 -40 149 c 2
 156 995 l 2
 166 1039 182 1065 226 1065 c 2
 231 1065 l 2
 275 1065 279 1039 269 995 c 2
 74 152 l 2
 60 93 61 60 93 60 c 0
 129 60 150 117 174 222 c 1
 180 173 l 1
EndSplineSet
EndChar

StartChar: v
Encoding: 118 118 59
Width: 383
VWidth: 960
Flags: HMW
LayerCount: 2
Fore
SplineSet
137 240 m 1
 380 995 l 2
 394 1039 402 1065 446 1065 c 2
 449 1065 l 2
 483 1065 489 1039 474 995 c 2
 151 55 l 2
 136 11 112 -15 68 -15 c 2
 65 -15 l 2
 21 -15 9 11 14 55 c 2
 127 995 l 2
 132 1039 152 1065 196 1065 c 2
 202 1065 l 2
 246 1065 249 1039 243 995 c 2
 137 240 l 1
EndSplineSet
EndChar

StartChar: w
Encoding: 119 119 60
Width: 582
VWidth: 960
Flags: HMW
LayerCount: 2
Fore
SplineSet
360 262 m 1
 595 995 l 2
 609 1039 623 1065 656 1065 c 2
 658 1065 l 2
 692 1065 688 1038 674 995 c 2
 364 55 l 2
 350 12 334 -15 290 -15 c 2
 288 -15 l 2
 245 -15 237 11 243 55 c 2
 346 752 l 1
 126 55 l 2
 112 11 99 -15 55 -15 c 2
 49 -15 l 2
 6 -15 3 11 9 55 c 2
 133 995 l 2
 139 1039 168 1065 202 1065 c 2
 205 1065 l 2
 238 1065 251 1039 244 995 c 2
 129 263 l 1
 358 995 l 2
 372 1039 390 1065 424 1065 c 2
 429 1065 l 2
 462 1065 469 1039 463 995 c 2
 360 262 l 1
EndSplineSet
EndChar

StartChar: x
Encoding: 120 120 61
Width: 336
VWidth: 960
Flags: HMW
LayerCount: 2
Fore
SplineSet
-62 -15 m 6
 -67 -15 l 6
 -111 -15 -115 12 -96 55 c 2
 114 534 l 1
 129 995 l 2
 130 1038 160 1065 204 1065 c 2
 205 1065 l 2
 249 1065 258 1039 252 995 c 2
 200 622 l 1
 318 995 l 2
 332 1039 348 1065 392 1065 c 2
 394 1065 l 2
 438 1065 446 1038 427 995 c 2
 229 542 l 1
 219 55 l 2
 218 12 190 -15 146 -15 c 2
 144 -15 l 2
 100 -15 92 11 97 55 c 2
 146 454 l 1
 14 55 l 2
 0 11 -18 -15 -62 -15 c 6
EndSplineSet
EndChar

StartChar: y
Encoding: 121 121 62
Width: 393
VWidth: 960
Flags: HMW
AnchorPoint: "top" 345 1050 basechar 0
LayerCount: 2
Fore
SplineSet
159 275 m 1
 400 1015 l 2
 409.908486481 1045.42439832 427 1065 451 1065 c 2
 452 1065 l 2
 487 1065 499.435967271 1045.07249136 489 1015 c 2
 168 90 l 2
 45 -266 8 -371 -105 -371 c 0
 -224 -371 -171.668923752 -196.206165653 -150 -137 c 0
 -137.951041547 -104.078538912 -122 -87 -105 -87 c 2
 -103 -87 l 2
 -78 -87 -72.6507507372 -104.887782058 -84 -137 c 0
 -108.91083167 -207.484138395 -119 -284 -99 -284 c 0
 -68 -284 -6 -97 52 78 c 1
 156 1017 l 2
 159.610660398 1049.60009725 184 1065 216 1065 c 2
 219 1065 l 2
 252 1065 272.776126475 1044.2936258 268 1012 c 2
 159 275 l 1
EndSplineSet
EndChar

StartChar: z
Encoding: 122 122 63
Width: 351
VWidth: 960
Flags: HMW
AnchorPoint: "top" 316 1050 basechar 0
LayerCount: 2
Fore
SplineSet
-79 75 m 6
 314 962 l 1
 197 962 l 2
 153 962 129 969 137 1003 c 2
 138 1010 l 2
 146 1044 173 1050 217 1050 c 2
 392 1050 l 2
 456 1050 459 1037 432 975 c 2
 42 88 l 1
 178 88 l 2
 222 88 247 81 239 47 c 2
 237 40 l 2
 229 7 202 0 158 0 c 2
 -40 0 l 2
 -104 0 -106 13 -79 75 c 6
EndSplineSet
EndChar

StartChar: comma
Encoding: 44 44 65
Width: 290
VWidth: 1920
Flags: HMW
LayerCount: 2
Fore
SplineSet
-91 -222 m 6
 -93 -222 l 6
 -101 -222 -107.663304309 -207.570451028 -98 -193 c 6
 9 0 l 5
 8 0 l 6
 -31 0 -40 31 -40 80 c 6
 -40 89 l 6
 -40 156 2 204 54 204 c 6
 57 204 l 6
 109 204 130 168 130 121 c 6
 130 118 l 6
 130 81 108.820461714 33.9464972789 77 -9 c 6
 -66 -202 l 6
 -78.4529080675 -215.908442777 -82 -222 -91 -222 c 6
EndSplineSet
EndChar

StartChar: exclam
Encoding: 33 33 67
Width: 290
VWidth: 1920
Flags: HMW
LayerCount: 2
Fore
SplineSet
49 -15 m 2
 46 -15 l 2
 -6 -15 -29 23 -29 90 c 2
 -29 99 l 2
 -29 166 -6 204 46 204 c 2
 49 204 l 2
 101 204 124 166 124 99 c 2
 124 90 l 2
 124 23 101 -15 49 -15 c 2
179 950 m 2
 279 1380 l 2
 292 1437 321 1465 358 1465 c 6
 359 1465 l 6
 396 1465 423 1437 410 1380 c 2
 310 950 l 2
 308 943 308 937 305 930 c 2
 166 479 l 2
 151 432 137 424 125 424 c 2
 122 424 l 2
 110 424 100 432 107 479 c 2
 176 930 l 2
 177 937 177 943 179 950 c 2
EndSplineSet
EndChar

StartChar: quotesingle
Encoding: 39 39 70
Width: 285
VWidth: 1920
Flags: HMW
LayerCount: 2
Fore
SplineSet
233 908 m 2
 231 908 l 2
 217 908 212 921 215 938 c 2
 252 1184 l 2
 255 1201 259 1227 263 1244 c 2
 290 1360 l 2
 299 1397 315 1435 352 1435 c 2
 355 1435 l 2
 392 1435 392 1397 383 1360 c 2
 356 1244 l 2
 352 1227 344 1201 339 1184 c 2
 263 938 l 2
 258 921 247 908 233 908 c 2
EndSplineSet
EndChar

StartChar: question
Encoding: 63 63 71
Width: 421
VWidth: 1920
Flags: HMW
LayerCount: 2
Fore
SplineSet
110 -15 m 6
 107 -15 l 6
 55 -15 32 23 32 90 c 6
 32 99 l 6
 32 166 55 204 107 204 c 6
 110 204 l 6
 162 204 185 166 185 99 c 6
 185 90 l 6
 185 23 162 -15 110 -15 c 6
166 389 m 2
 159 389 l 2
 140 389 129 405 137 438 c 0
 177 611 273 607 357 969 c 2
 416 1226 l 2
 431 1290 445 1378 401 1378 c 0
 355 1378 331 1288 315 1218 c 2
 266 1007 l 2
 256 963 232 937 198 937 c 2
 196 937 l 2
 162 937 148 963 158 1007 c 2
 208 1222 l 2
 235 1338 296 1467 429 1467 c 0
 548 1467 567 1347 541 1233 c 2
 484 986 l 2
 414 682 305 646 213 438 c 0
 199 406 185 389 166 389 c 2
EndSplineSet
EndChar

StartChar: parenleft
Encoding: 40 40 72
Width: 299
VWidth: 2048
Flags: HMW
LayerCount: 2
Fore
SplineSet
194 1220 m 6
 241 1422 345 1574 494 1607 c 4
 518 1612 522 1600 519 1586 c 6
 518 1582 l 6
 515 1571 506 1564 481 1550 c 4
 407 1509 347 1427 301 1227 c 6
 22 19 l 6
 -24 -181 -3 -263 53 -304 c 4
 72 -318 78 -325 75 -336 c 6
 75 -340 l 6
 72 -354 62 -366 40 -361 c 4
 -93 -328 -129 -176 -82 26 c 6
 194 1220 l 6
EndSplineSet
EndChar

StartChar: parenright
Encoding: 41 41 73
Width: 298
VWidth: 2048
Flags: HMW
LayerCount: 2
Fore
SplineSet
153 26 m 2
 106 -176 2 -328 -147 -361 c 0
 -171 -366 -175 -354 -172 -340 c 2
 -172 -336 l 2
 -169 -325 -159 -318 -134 -304 c 0
 -60 -263 -1 -181 45 19 c 2
 324 1227 l 2
 370 1427 350 1509 294 1550 c 0
 275 1564 268 1571 271 1582 c 2
 272 1586 l 2
 275 1600 285 1612 307 1607 c 0
 440 1574 476 1422 429 1220 c 2
 153 26 l 2
EndSplineSet
EndChar

StartChar: asterisk
Encoding: 42 42 74
Width: 518
VWidth: 2048
Flags: HMW
LayerCount: 2
Fore
SplineSet
420 1192 m 257
 417 1229 l 257
 583 1302 l 2
 609 1313 622 1320 632 1323 c 2
 633 1323 l 2
 653 1329 674 1319 677 1292 c 2
 677 1286 l 2
 680 1259 662 1237 642 1231 c 2
 641 1231 l 2
 626 1227 617 1226 591 1221 c 2
 420 1192 l 257
400 1200 m 257
 436 1223 l 257
 525 1103 l 2
 539 1084 545 1075 549 1067 c 2
 550 1066 l 2
 558 1050 549 1025 522 1008 c 2
 517 1005 l 2
 490 988 466 993 458 1009 c 2
 458 1010 l 2
 452 1022 451 1030 444 1053 c 2
 400 1200 l 257
405 1223 m 257
 432 1200 l 257
 319 1053 l 2
 302 1030 293 1018 285 1010 c 2
 285 1009 l 2
 269 993 243 988 224 1005 c 2
 221 1008 l 2
 202 1025 204 1050 220 1066 c 2
 220 1066 l 2
 232 1078 241 1084 263 1103 c 2
 405 1223 l 257
429 1229 m 257
 408 1192 l 257
 251 1221 l 2
 227 1226 212 1228 204 1231 c 2
 204 1231 l 2
 186 1237 179 1259 194 1286 c 2
 197 1292 l 2
 212 1319 237 1329 255 1323 c 2
 255 1323 l 2
 268 1319 276 1313 296 1302 c 2
 429 1229 l 257
438 1211 m 257
 400 1211 l 257
 414 1376 l 2
 417 1401 417 1416 419 1425 c 2
 419 1426 l 2
 424 1446 445 1464 474 1464 c 2
 480 1464 l 2
 509 1464 521 1446 516 1426 c 2
 516 1425 l 2
 513 1410 508 1401 499 1376 c 2
 438 1211 l 257
EndSplineSet
EndChar

StartChar: at
Encoding: 64 64 75
Width: 790
VWidth: 1920
Flags: HMW
LayerCount: 2
Fore
SplineSet
418 199 m 1
 385 54 326 -17 241 -17 c 0
 163 -17 119 41 158 211 c 2
 302 838 l 2
 339 998 410 1067 490 1067 c 0
 580 1067 609 996 576 851 c 1
 520 841 l 1
 543 939 542 988 497 988 c 0
 455 988 439 949 416 851 c 2
 266 199 l 2
 243 101 241 62 283 62 c 0
 328 62 351 111 374 209 c 1
 418 199 l 1
354 -337 m 0
 310 -359 271 -377 191 -377 c 0
 -80 -377 -114 -191 -59 49 c 2
 159 990 l 2
 218 1245 363 1417 610 1417 c 0
 882 1417 905 1230 856 1016 c 2
 675 235 l 2
 633 55 573 -17 464 -17 c 0
 374 -17 339 55 364 165 c 2
 548 961 l 1
 623 1041 l 2
 639 1057 648 1067 662 1067 c 2
 663 1067 l 2
 677 1067 682 1055 674 1021 c 2
 482 191 l 2
 460 94 460 59 494 59 c 0
 527 59 558 117 585 235 c 2
 766 1016 l 2
 809 1204 786 1347 594 1347 c 0
 413 1347 303 1206 255 996 c 2
 35 45 l 2
 -9 -145 -4 -307 207 -307 c 0
 263 -307 298 -294 343 -272 c 0
 370 -259 386 -267 389 -279 c 2
 390 -283 l 2
 395 -303 380 -324 354 -337 c 0
EndSplineSet
EndChar

StartChar: dollar
Encoding: 36 36 76
Width: 455
VWidth: 1920
Flags: HMW
LayerCount: 2
Fore
SplineSet
94 535 m 2
 103 535 l 2
 134 535 141 509 131 465 c 2
 85 266 l 2
 48 102 66 70 118 70 c 0
 163 70 219 118 268 331 c 0
 305 493 281 602 244 678 c 0
 190 784 149 890 203 1126 c 0
 257 1358 332 1420 440 1420 c 0
 543 1420 588 1364 538 1146 c 2
 498 974 l 2
 486 920 468 895 435 895 c 2
 429 895 l 2
 396 895 390 920 402 974 c 2
 441 1144 l 2
 479 1309 462 1338 422 1338 c 0
 384 1338 345 1297 305 1124 c 0
 266 955 292 832 330 766 c 0
 385 669 428 559 377 336 c 0
 314 62 221 -20 96 -20 c 0
 -23 -20 -63 48 -18 245 c 2
 32 465 l 2
 42 509 63 535 94 535 c 2
479 1600 m 2
 481 1600 l 2
 495 1600 497 1588 494 1574 c 2
 91 -174 l 2
 88 -188 80 -200 66 -200 c 2
 64 -200 l 2
 50 -200 48 -188 51 -174 c 2
 454 1574 l 2
 457 1588 465 1600 479 1600 c 2
EndSplineSet
EndChar

StartChar: numbersign
Encoding: 35 35 77
Width: 573
VWidth: 1920
Flags: HMW
LayerCount: 2
Fore
SplineSet
78 514 m 6
 440 514 l 6
 484 514 509 508 509 484 c 6
 509 477 l 6
 509 453 484 447 440 447 c 6
 78 447 l 6
 34 447 8 453 8 477 c 6
 8 484 l 6
 8 508 34 514 78 514 c 6
236 1028 m 2
 598 1028 l 2
 642 1028 667 1022 667 998 c 2
 667 991 l 2
 667 967 642 961 598 961 c 2
 236 961 l 2
 192 961 166 967 166 991 c 2
 166 998 l 2
 166 1022 192 1028 236 1028 c 2
657 1415 m 2
 661 1415 l 2
 696 1415 697 1388 679 1335 c 2
 237 65 l 2
 219 12 201 -15 166 -15 c 2
 162 -15 l 2
 127 -15 125 12 143 65 c 2
 585 1335 l 2
 603 1388 622 1415 657 1415 c 2
481 1415 m 2
 485 1415 l 2
 519 1415 521 1388 503 1335 c 2
 61 65 l 2
 43 12 24 -15 -10 -15 c 2
 -14 -15 l 2
 -48 -15 -51 12 -33 65 c 2
 409 1335 l 2
 427 1388 447 1415 481 1415 c 2
EndSplineSet
EndChar

StartChar: slash
Encoding: 47 47 78
Width: 441
VWidth: 2048
Flags: HMW
LayerCount: 2
Fore
SplineSet
608 1355 m 6
 -11 -55 l 6
 -26 -88 -46 -115 -80 -115 c 6
 -81 -115 l 6
 -115 -115 -119 -88 -104 -55 c 6
 515 1355 l 6
 530 1388 551 1415 584 1415 c 6
 585 1415 l 6
 619 1415 623 1388 608 1355 c 6
EndSplineSet
EndChar

StartChar: percent
Encoding: 37 37 79
Width: 752
VWidth: 2048
Flags: HMW
LayerCount: 2
Fore
SplineSet
153 981 m 6
 210 1226 l 6
 239 1352 302 1418 405 1418 c 4
 508 1418 548 1352 519 1226 c 6
 462 981 l 6
 433 855 363 788 260 788 c 4
 157 788 124 855 153 981 c 6
250 970 m 6
 231 888 235 860 277 860 c 4
 319 860 340 888 359 970 c 6
 421 1237 l 6
 440 1319 431 1346 389 1346 c 4
 347 1346 331 1319 312 1237 c 6
 250 970 l 6
316 174 m 6
 373 420 l 6
 402 546 467 612 570 612 c 4
 673 612 711 546 682 420 c 6
 625 174 l 6
 596 48 528 -18 425 -18 c 4
 322 -18 287 48 316 174 c 6
414 164 m 6
 395 82 399 54 441 54 c 4
 483 54 505 82 524 164 c 6
 586 431 l 6
 605 513 596 540 554 540 c 4
 512 540 495 513 476 431 c 6
 414 164 l 6
857 1335 m 6
 58 45 l 6
 29 -3 15 -15 -9 -15 c 6
 -12 -15 l 6
 -36 -15 -53 17 -23 65 c 6
 777 1355 l 6
 801 1394 821 1415 845 1415 c 6
 847 1415 l 6
 871 1415 881 1374 857 1335 c 6
EndSplineSet
EndChar

StartChar: hyphen
Encoding: 45 45 80
Width: 329
VWidth: 1920
Flags: HMW
LayerCount: 2
Fore
SplineSet
29 608 m 14
 29 617 l 22
 29 638 48 657 86 657 c 14
 286 657 l 22
 324 657 343 638 343 617 c 14
 343 608 l 22
 343 587 324 568 286 568 c 14
 86 568 l 22
 48 568 29 587 29 608 c 14
EndSplineSet
EndChar

StartChar: underscore
Encoding: 95 95 81
Width: 450
VWidth: 1920
Flags: HMW
LayerCount: 2
Fore
SplineSet
-142 -50 m 14
 -142 -40 l 22
 -142 -19 -123 0 -85 0 c 14
 293 0 l 22
 331 0 350 -19 350 -40 c 14
 350 -50 l 22
 350 -71 331 -90 293 -90 c 14
 -85 -90 l 22
 -123 -90 -142 -71 -142 -50 c 14
EndSplineSet
EndChar

StartChar: plus
Encoding: 43 43 82
Width: 560
VWidth: 1920
Flags: HMW
LayerCount: 2
Fore
SplineSet
30 683 m 14
 30 691 l 22
 30 712 49 731 87 731 c 14
 549 731 l 22
 587 731 606 712 606 691 c 14
 606 683 l 22
 606 662 587 643 549 643 c 14
 87 643 l 22
 49 643 30 662 30 683 c 14
385 988 m 10
 391 988 l 18
 412 988 427 969 418 931 c 10
 302 429 l 18
 293 391 270 372 249 372 c 10
 243 372 l 18
 222 372 207 391 216 429 c 10
 332 931 l 18
 341 969 364 988 385 988 c 10
EndSplineSet
EndChar

StartChar: equal
Encoding: 61 61 83
Width: 537
VWidth: 1920
Flags: HMW
LayerCount: 2
Fore
SplineSet
-25 398 m 10
 -25 406 l 18
 -25 427 -6 446 32 446 c 10
 454 446 l 18
 492 446 511 427 511 406 c 10
 511 398 l 18
 511 377 492 358 454 358 c 10
 32 358 l 18
 -6 358 -25 377 -25 398 c 10
19 589 m 14
 19 597 l 22
 19 618 38 637 76 637 c 14
 498 637 l 22
 536 637 555 618 555 597 c 14
 555 589 l 22
 555 568 536 549 498 549 c 14
 76 549 l 22
 38 549 19 568 19 589 c 14
EndSplineSet
EndChar

StartChar: less
Encoding: 60 60 84
Width: 491
VWidth: 1920
Flags: HMW
LayerCount: 2
Fore
SplineSet
352 367 m 6
 78 551 l 6
 56 566 50 576 55 597 c 6
 56 603 l 6
 61 624 73 634 101 649 c 6
 459 833 l 6
 498 853 520 824 514 797 c 6
 513 791 l 6
 507 764 476 751 436 731 c 6
 164 600 l 261
 375 469 l 6
 405 449 430 436 424 409 c 6
 423 403 l 6
 417 376 381 347 352 367 c 6
EndSplineSet
EndChar

StartChar: greater
Encoding: 62 62 85
Width: 491
VWidth: 1920
Flags: HMW
LayerCount: 2
Fore
SplineSet
176 833 m 2
 450 649 l 2
 472 634 478 624 473 603 c 2
 472 597 l 2
 467 576 455 566 427 551 c 2
 69 367 l 2
 30 347 8 376 14 403 c 2
 15 409 l 2
 21 436 52 449 92 469 c 2
 365 600 l 257
 153 731 l 2
 123 751 98 764 104 791 c 2
 105 797 l 2
 111 824 147 853 176 833 c 2
EndSplineSet
EndChar

StartChar: backslash
Encoding: 92 92 86
Width: 440
VWidth: 2048
Flags: HMW
LayerCount: 2
Fore
SplineSet
280 -25 m 2
 279 -77 262 -100 228 -100 c 2
 227 -100 l 2
 193 -100 186 -77 187 -25 c 2
 219 1345 l 2
 220 1387 248 1400 272 1400 c 2
 273 1400 l 2
 296 1400 313 1387 312 1345 c 2
 280 -25 l 2
EndSplineSet
EndChar

StartChar: bracketleft
Encoding: 91 91 87
Width: 288
VWidth: 1920
Flags: HMW
LayerCount: 2
Fore
SplineSet
374 1519 m 1
 -41 -279 l 1
 24 -279 l 2
 68 -279 92 -285 84 -319 c 2
 84 -320 l 2
 76 -354 49 -360 5 -360 c 2
 -103 -360 l 2
 -147 -360 -163 -339 -153 -295 c 2
 269 1535 l 2
 279 1579 305 1600 349 1600 c 2
 457 1600 l 2
 501 1600 526 1594 518 1560 c 2
 518 1559 l 2
 510 1525 483 1519 439 1519 c 2
 374 1519 l 1
EndSplineSet
EndChar

StartChar: braceleft
Encoding: 123 123 88
Width: 300
VWidth: 2048
Flags: HMW
LayerCount: 2
Fore
SplineSet
290 1439 m 6
 316 1553 360 1600 473 1600 c 4
 507 1600 511 1586 508 1572 c 6
 507 1568 l 6
 503 1549 484 1542 460 1542 c 4
 430 1542 408 1517 388 1430 c 6
 240 788 l 6
 219 696 189 644 105 620 c 5
 177 596 183 544 162 452 c 6
 14 -190 l 6
 -6 -277 4 -302 34 -302 c 4
 58 -302 73 -309 69 -328 c 6
 68 -332 l 6
 65 -346 55 -360 21 -360 c 4
 -92 -360 -114 -313 -88 -199 c 6
 62 452 l 6
 81 536 69 558 43 573 c 4
 22 585 7 595 13 619 c 6
 13 621 l 6
 19 645 37 655 64 667 c 4
 97 682 121 704 140 788 c 6
 290 1439 l 6
EndSplineSet
EndChar

StartChar: bracketright
Encoding: 93 93 89
Width: 288
VWidth: 1920
Flags: HMW
LayerCount: 2
Fore
SplineSet
-39 -279 m 1
 376 1519 l 1
 311 1519 l 2
 267 1519 242 1525 250 1559 c 2
 250 1560 l 2
 258 1594 285 1600 329 1600 c 2
 437 1600 l 2
 481 1600 497 1579 487 1535 c 2
 65 -295 l 2
 55 -339 29 -360 -15 -360 c 2
 -123 -360 l 2
 -167 -360 -192 -354 -184 -320 c 2
 -184 -319 l 2
 -176 -285 -148 -279 -104 -279 c 2
 -39 -279 l 1
EndSplineSet
EndChar

StartChar: braceright
Encoding: 125 125 90
Width: 300
VWidth: 2048
Flags: HMW
LayerCount: 2
Fore
SplineSet
56 -199 m 2
 30 -313 -14 -360 -127 -360 c 0
 -161 -360 -165 -346 -162 -332 c 2
 -161 -328 l 2
 -157 -309 -138 -302 -114 -302 c 0
 -84 -302 -62 -277 -42 -190 c 2
 106 452 l 2
 127 544 157 596 241 620 c 1
 169 644 163 696 184 788 c 2
 332 1430 l 2
 352 1517 342 1542 312 1542 c 0
 288 1542 273 1549 277 1568 c 2
 278 1572 l 2
 281 1586 291 1600 325 1600 c 0
 438 1600 460 1553 434 1439 c 2
 284 788 l 2
 265 704 277 682 303 667 c 0
 324 655 339 645 333 621 c 2
 333 619 l 2
 327 595 309 585 282 573 c 0
 249 558 225 536 206 452 c 2
 56 -199 l 2
EndSplineSet
EndChar

StartChar: bar
Encoding: 124 124 91
Width: 312
VWidth: 1920
Flags: HMW
LayerCount: 2
Fore
SplineSet
409 1615 m 14
 410 1615 l 22
 437 1615 443 1587 432 1540 c 14
 7 -300 l 22
 -6 -357 -23 -375 -50 -375 c 14
 -51 -375 l 22
 -78 -375 -85 -357 -72 -300 c 14
 353 1540 l 22
 364 1587 382 1615 409 1615 c 14
EndSplineSet
EndChar

StartChar: asciitilde
Encoding: 126 126 92
Width: 664
VWidth: 2048
Flags: HMW
LayerCount: 2
Fore
SplineSet
234 623 m 0
 190 623 162 589 151 564 c 0
 133 522 119 505 86 505 c 2
 84 505 l 2
 60 505 46 532 64 574 c 0
 86 628 163 711 254 711 c 0
 377 711 397 587 470 587 c 0
 514 587 541 621 553 646 c 0
 573 689 594 706 617 706 c 2
 618 706 l 2
 652 706 661 679 641 636 c 0
 611 572 540 500 449 500 c 0
 326 500 307 623 234 623 c 0
EndSplineSet
EndChar

StartChar: asciicircum
Encoding: 94 94 93
Width: 389
VWidth: 1920
Flags: HMW
LayerCount: 2
Fore
SplineSet
367 1271 m 1
 164 780 l 2
 146 735 131 715 104 715 c 6
 101 715 l 6
 74 715 69 735 89 780 c 2
 349 1360 l 2
 362 1389 379 1410 396 1410 c 2
 403 1410 l 2
 420 1410 428 1389 427 1360 c 2
 418 780 l 2
 418 735 407 715 376 715 c 2
 373 715 l 6
 344 715 341 735 343 780 c 2
 367 1271 l 1
EndSplineSet
EndChar

StartChar: figuredash
Encoding: 8210 8210 108
Width: 575
VWidth: 2048
Flags: HMW
LayerCount: 2
Fore
SplineSet
25 608 m 14
 25 618 l 22
 25 639 44 658 82 658 c 14
 533 658 l 22
 571 658 590 639 590 618 c 14
 590 608 l 22
 590 587 571 568 533 568 c 14
 82 568 l 22
 44 568 25 587 25 608 c 14
EndSplineSet
EndChar

StartChar: endash
Encoding: 8211 8211 109
Width: 550
VWidth: 2048
Flags: HMW
LayerCount: 2
Fore
SplineSet
25 608 m 14
 25 618 l 22
 25 639 44 658 82 658 c 14
 508 658 l 22
 546 658 565 639 565 618 c 14
 565 608 l 22
 565 587 546 568 508 568 c 14
 82 568 l 22
 44 568 25 587 25 608 c 14
EndSplineSet
EndChar

StartChar: emdash
Encoding: 8212 8212 110
Width: 1100
VWidth: 2048
Flags: HMW
LayerCount: 2
Fore
SplineSet
25 608 m 14
 25 618 l 22
 25 639 44 658 82 658 c 14
 1058 658 l 22
 1096 658 1115 639 1115 618 c 14
 1115 608 l 22
 1115 587 1096 568 1058 568 c 14
 82 568 l 22
 44 568 25 587 25 608 c 14
EndSplineSet
EndChar

StartChar: uni2015
Encoding: 8213 8213 111
Width: 1180
VWidth: 2048
Flags: HMW
LayerCount: 2
Fore
SplineSet
40 572 m 14
 40 652 l 22
 40 656 41 658 45 658 c 14
 1175 658 l 22
 1179 658 1180 656 1180 652 c 14
 1180 572 l 22
 1180 568 1179 568 1175 568 c 14
 45 568 l 22
 41 568 40 568 40 572 c 14
EndSplineSet
EndChar

StartChar: quoteleft
Encoding: 8216 8216 114
Width: 303
VWidth: 1920
Flags: HMW
LayerCount: 2
Fore
SplineSet
438 1456 m 2
 440 1456 l 2
 448 1456 454.663085938 1441.5703125 445 1427 c 2
 338 1234 l 1
 339 1234 l 2
 378 1234 387 1203 387 1154 c 2
 387 1145 l 2
 387 1078 345 1030 293 1030 c 2
 290 1030 l 2
 238 1030 217 1066 217 1113 c 2
 217 1116 l 2
 217 1153 238.1796875 1200.05371094 270 1243 c 2
 413 1436 l 2
 425.453125 1449.90820312 429 1456 438 1456 c 2
EndSplineSet
EndChar

StartChar: quotereversed
Encoding: 8219 8219 117
Width: 303
VWidth: 1920
Flags: HMW
LayerCount: 2
Fore
SplineSet
329 967 m 2
 325 967 318 970 310 987 c 2
 263 1159 l 2
 252.178750039 1198.60117007 252 1219 252 1256 c 2
 252 1268 l 2
 252 1335 276 1393 328 1393 c 2
 331 1393 l 2
 383 1393 406 1355 406 1288 c 2
 406 1279 l 2
 406 1230 378 1189 329 1189 c 2
 328 1189 l 1
 342 996 l 2
 347 979 339 967 331 967 c 2
 329 967 l 2
EndSplineSet
EndChar

StartChar: bullet
Encoding: 8226 8226 120
Width: 351
VWidth: 2048
Flags: HMW
LayerCount: 2
Fore
SplineSet
122 731 m 6
 122 760 l 6
 122 824 172 857 226 857 c 4
 280 857 335 824 335 760 c 6
 335 731 l 6
 335 667 280 633 226 633 c 4
 172 633 122 667 122 731 c 6
EndSplineSet
EndChar

StartChar: dagger
Encoding: 8224 8224 124
Width: 458
VWidth: 1920
Flags: HMW
LayerCount: 2
Fore
SplineSet
130 1006 m 14
 130 1010 l 22
 130 1044 156 1050 200 1050 c 14
 483 1050 l 22
 527 1050 553 1044 553 1010 c 14
 553 1006 l 22
 553 972 527 967 483 967 c 14
 200 967 l 22
 156 967 130 972 130 1006 c 14
435 1415 m 10
 438 1415 l 18
 482 1415 487 1389 477 1345 c 10
 179 55 l 18
 169 11 152 -15 108 -15 c 10
 105 -15 l 18
 61 -15 55 11 65 55 c 10
 363 1345 l 18
 373 1389 391 1415 435 1415 c 10
EndSplineSet
EndChar

StartChar: daggerdbl
Encoding: 8225 8225 125
Width: 458
VWidth: 1920
Flags: HMW
LayerCount: 2
Fore
SplineSet
-93 39 m 14
 -93 43 l 22
 -93 77 -67 83 -23 83 c 14
 260 83 l 22
 304 83 330 77 330 43 c 14
 330 39 l 22
 330 5 304 0 260 0 c 14
 -23 0 l 22
 -67 0 -93 5 -93 39 c 14
130 1006 m 10
 130 1010 l 18
 130 1044 156 1050 200 1050 c 10
 483 1050 l 18
 527 1050 553 1044 553 1010 c 10
 553 1006 l 18
 553 972 527 967 483 967 c 10
 200 967 l 18
 156 967 130 972 130 1006 c 10
435 1415 m 10
 438 1415 l 18
 482 1415 487 1389 477 1345 c 10
 96 -305 l 18
 86 -349 68 -375 24 -375 c 10
 21 -375 l 18
 -23 -375 -28 -349 -18 -305 c 10
 363 1345 l 18
 373 1389 391 1415 435 1415 c 10
EndSplineSet
EndChar

StartChar: perthousand
Encoding: 8240 8240 126
Width: 1138
VWidth: 2048
Flags: HMW
LayerCount: 2
Fore
SplineSet
702 174 m 6
 759 420 l 6
 788 546 853 612 956 612 c 4
 1059 612 1097 546 1068 420 c 6
 1011 174 l 6
 982 48 914 -18 811 -18 c 4
 708 -18 673 48 702 174 c 6
800 164 m 6
 781 82 785 54 827 54 c 4
 869 54 891 82 910 164 c 6
 972 431 l 6
 991 513 982 540 940 540 c 4
 898 540 881 513 862 431 c 6
 800 164 l 6
153 981 m 6
 210 1226 l 6
 239 1352 302 1418 405 1418 c 4
 508 1418 548 1352 519 1226 c 6
 462 981 l 6
 433 855 363 788 260 788 c 4
 157 788 124 855 153 981 c 6
250 970 m 6
 231 888 235 860 277 860 c 4
 319 860 340 888 359 970 c 6
 421 1237 l 6
 440 1319 431 1346 389 1346 c 4
 347 1346 331 1319 312 1237 c 6
 250 970 l 6
316 174 m 6
 373 420 l 6
 402 546 467 612 570 612 c 4
 673 612 711 546 682 420 c 6
 625 174 l 6
 596 48 528 -18 425 -18 c 4
 322 -18 287 48 316 174 c 6
414 164 m 6
 395 82 399 54 441 54 c 4
 483 54 505 82 524 164 c 6
 586 431 l 6
 605 513 596 540 554 540 c 4
 512 540 495 513 476 431 c 6
 414 164 l 6
857 1335 m 6
 58 45 l 6
 29 -3 15 -15 -9 -15 c 6
 -12 -15 l 6
 -36 -15 -53 17 -23 65 c 6
 777 1355 l 6
 801 1394 821 1415 845 1415 c 6
 847 1415 l 6
 871 1415 881 1374 857 1335 c 6
EndSplineSet
EndChar

StartChar: uni2031
Encoding: 8241 8241 127
Width: 1522
VWidth: 2048
Flags: HMW
LayerCount: 2
Fore
SplineSet
1086 174 m 6
 1143 420 l 6
 1172 546 1237 612 1340 612 c 4
 1443 612 1481 546 1452 420 c 6
 1395 174 l 6
 1366 48 1298 -18 1195 -18 c 4
 1092 -18 1057 48 1086 174 c 6
1184 164 m 6
 1165 82 1169 54 1211 54 c 4
 1253 54 1275 82 1294 164 c 6
 1356 431 l 6
 1375 513 1366 540 1324 540 c 4
 1282 540 1265 513 1246 431 c 6
 1184 164 l 6
702 174 m 2
 759 420 l 2
 788 546 853 612 956 612 c 0
 1059 612 1097 546 1068 420 c 2
 1011 174 l 2
 982 48 914 -18 811 -18 c 0
 708 -18 673 48 702 174 c 2
800 164 m 2
 781 82 785 54 827 54 c 0
 869 54 891 82 910 164 c 2
 972 431 l 2
 991 513 982 540 940 540 c 0
 898 540 881 513 862 431 c 2
 800 164 l 2
153 981 m 2
 210 1226 l 2
 239 1352 302 1418 405 1418 c 0
 508 1418 548 1352 519 1226 c 2
 462 981 l 2
 433 855 363 788 260 788 c 0
 157 788 124 855 153 981 c 2
250 970 m 2
 231 888 235 860 277 860 c 0
 319 860 340 888 359 970 c 2
 421 1237 l 2
 440 1319 431 1346 389 1346 c 0
 347 1346 331 1319 312 1237 c 2
 250 970 l 2
316 174 m 2
 373 420 l 2
 402 546 467 612 570 612 c 0
 673 612 711 546 682 420 c 2
 625 174 l 2
 596 48 528 -18 425 -18 c 0
 322 -18 287 48 316 174 c 2
414 164 m 2
 395 82 399 54 441 54 c 0
 483 54 505 82 524 164 c 2
 586 431 l 2
 605 513 596 540 554 540 c 0
 512 540 495 513 476 431 c 2
 414 164 l 2
857 1335 m 2
 58 45 l 2
 29 -3 15 -15 -9 -15 c 2
 -12 -15 l 2
 -36 -15 -53 17 -23 65 c 2
 777 1355 l 2
 801 1394 821 1415 845 1415 c 2
 847 1415 l 2
 871 1415 881 1374 857 1335 c 2
EndSplineSet
EndChar

StartChar: fraction
Encoding: 8260 8260 128
Width: 510
VWidth: 1920
Flags: HMW
LayerCount: 2
Fore
SplineSet
608 1290 m 2
 610 1289 l 2
 628 1279 630 1261 607 1218 c 10
 60 199 l 18
 37 156 8 146 -10 156 c 10
 -12 157 l 18
 -30 167 -24 188 -1 231 c 10
 546 1250 l 18
 569 1293 590 1300 608 1290 c 2
EndSplineSet
EndChar

StartChar: uni2074
Encoding: 8308 8308 129
Width: 279
VWidth: 1920
Flags: HMW
LayerCount: 2
Fore
SplineSet
359 874 m 2
 359 873 l 2
 351 839 331 828 299 828 c 2
 292 828 l 1
 259 686 l 2
 249 642 228 615 201 615 c 2
 200 615 l 2
 173 615 164 642 174 686 c 2
 207 828 l 1
 139 828 l 2
 97 828 88 839 98 883 c 2
 101 898 l 2
 107 922 112 937 132 980 c 2
 334 1414 l 2
 353 1455 372 1485 404 1485 c 2
 407 1485 l 2
 439 1485 437 1458 427 1414 c 2
 313 920 l 1
 320 920 l 2
 352 920 367 908 359 874 c 2
230 920 m 1
 301 1226 l 1
 162 920 l 1
 230 920 l 1
EndSplineSet
EndChar

StartChar: uni2073
Encoding: 8307 8307 130
Width: 311
VWidth: 1920
Flags: HMW
LayerCount: 2
Fore
SplineSet
153 893 m 2
 158 893 l 2
 180 893 196 876 186 832 c 2
 184 821 l 2
 172 771 162 694 192 694 c 0
 224 694 257 778 270 834 c 2
 286 905 l 2
 301 968 305 1027 264 1027 c 2
 255 1027 l 2
 233 1027 224 1034 232 1068 c 2
 232 1070 l 2
 240 1104 252 1110 274 1110 c 2
 277 1110 l 2
 315 1110 334 1174 347 1231 c 2
 360 1288 l 2
 370 1333 383 1406 355 1406 c 0
 331 1406 308 1334 293 1269 c 2
 290 1257 l 2
 280 1213 265 1186 233 1186 c 2
 231 1186 l 2
 199 1186 197 1213 207 1257 c 2
 210 1271 l 2
 240 1402 292 1490 376 1490 c 0
 460 1490 477 1416 447 1287 c 2
 440 1254 l 2
 407 1110 349 1060 268 1060 c 1
 280 1089 l 1
 361 1089 401 1033 368 889 c 2
 355 832 l 2
 323 693 263 610 168 610 c 0
 87 610 67 688 97 819 c 2
 100 832 l 2
 110 876 131 893 153 893 c 2
EndSplineSet
EndChar

StartChar: uni2072
Encoding: 8306 8306 131
Width: 264
VWidth: 1920
Flags: HMW
LayerCount: 2
Fore
SplineSet
54 688 m 2
 128 1009 294 1077 334 1250 c 2
 343 1290 l 2
 355 1344 363 1396 338 1396 c 0
 310 1396 292 1328 274 1250 c 2
 266 1217 l 2
 256 1173 236 1156 214 1156 c 2
 207 1156 l 2
 185 1156 174 1173 184 1217 c 2
 191 1248 l 2
 227 1404 283 1497 366 1497 c 0
 443 1497 456 1420 425 1287 c 2
 417 1252 l 2
 362 1013 216 984 161 746 c 2
 160 740 l 1
 248 740 l 6
 290 740 312 723 304 689 c 6
 304 688 l 6
 296 654 266 637 224 637 c 6
 45 637 l 2
 43 637 42 639 43 643 c 2
 54 688 l 2
EndSplineSet
EndChar

StartChar: uni2070
Encoding: 8304 8304 132
Width: 341
VWidth: 1920
Flags: HMW
LayerCount: 2
Fore
SplineSet
136 905 m 2
 203 1196 l 2
 245 1379 296 1490 395 1490 c 0
 494 1490 493 1379 451 1196 c 2
 384 905 l 2
 342 721 291 610 192 610 c 0
 93 610 94 721 136 905 c 2
224 916 m 2
 193 780 177 705 214 705 c 0
 251 705 269 780 300 916 c 2
 363 1185 l 2
 394 1321 410 1395 373 1395 c 0
 336 1395 318 1321 287 1185 c 2
 224 916 l 2
EndSplineSet
EndChar

StartChar: uni2075
Encoding: 8309 8309 133
Width: 333
VWidth: 1920
Flags: HMW
LayerCount: 2
Fore
SplineSet
163 859 m 2
 167 859 l 2
 189 859 199 832 191 788 c 0
 180 730 177 685 204 685 c 0
 241 685 266 763 289 861 c 2
 308 945 l 2
 330 1039 346 1120 314 1120 c 0
 298 1120 280 1082 273 1063 c 0
 260 1029 239 1008 209 1008 c 2
 208 1008 l 2
 186 1008 173 1028 183 1063 c 2
 287 1407 l 2
 300 1451 316 1463 358 1463 c 2
 443 1463 l 2
 485 1463 494 1452 488 1428 c 2
 487 1427 l 2
 478 1386 467 1379 414 1379 c 2
 355 1379 l 1
 254 1066 l 1
 244 1066 l 1
 277 1144 303 1212 362 1212 c 0
 428 1212 435 1120 391 931 c 2
 378 876 l 2
 335 690 279 603 184 603 c 0
 102 603 99 688 112 788 c 0
 117 832 141 859 163 859 c 2
EndSplineSet
EndChar

StartChar: uni2076
Encoding: 8310 8310 134
Width: 326
VWidth: 1920
Flags: HMW
LayerCount: 2
Fore
SplineSet
293 1086 m 0
 269 1086 247 1050 227 964 c 2
 209 890 l 1
 202 945 l 1
 232 1076 284 1174 334 1174 c 0
 399 1174 414 1100 382 961 c 2
 347 811 l 2
 316 676 265 611 178 611 c 0
 85 611 89 698 131 879 c 2
 207 1210 l 2
 250 1398 295 1490 387 1490 c 0
 467 1490 465 1393 440 1284 c 2
 440 1280 l 2
 432 1246 412 1229 390 1229 c 2
 386 1229 l 2
 364 1229 352 1246 364 1300 c 2
 368 1317 l 2
 379 1366 386 1398 363 1398 c 0
 332 1398 315 1343 279 1189 c 2
 197 838 l 2
 176 748 168 702 201 702 c 0
 229 702 248 752 267 836 c 2
 292 944 l 2
 312 1030 319 1086 293 1086 c 0
EndSplineSet
EndChar

StartChar: uni2077
Encoding: 8311 8311 135
Width: 228
VWidth: 1920
Flags: HMW
LayerCount: 2
Fore
SplineSet
412 1394 m 2
 170 686 l 2
 155 642 137 615 105 615 c 2
 98 615 l 2
 66 615 63 642 78 686 c 2
 316 1369 l 1
 262 1369 l 2
 220 1369 197 1381 205 1415 c 2
 207 1424 l 2
 215 1458 243 1470 285 1470 c 2
 364 1470 l 2
 416 1470 430 1447 412 1394 c 2
EndSplineSet
EndChar

StartChar: uni2078
Encoding: 8312 8312 136
Width: 296
VWidth: 1920
Flags: HMW
LayerCount: 2
Fore
SplineSet
183 679 m 0
 206 679 221 699 230 736 c 2
 283 968 l 2
 292 1005 286 1026 263 1026 c 0
 240 1026 228 1005 219 968 c 2
 166 736 l 2
 157 699 160 679 183 679 c 0
279 1096 m 0
 298 1096 312 1109 320 1142 c 2
 373 1374 l 2
 380 1405 373 1421 354 1421 c 0
 340 1421 325 1405 318 1374 c 2
 265 1142 l 2
 257 1109 264 1096 279 1096 c 0
283 1068 m 1
 364 1068 383 1026 366 954 c 2
 314 729 l 2
 296 653 265 611 167 611 c 0
 71 611 60 653 78 729 c 2
 130 954 l 2
 147 1026 185 1068 264 1068 c 1
 262 1056 l 1
 187 1058 168 1093 184 1163 c 2
 233 1378 l 2
 249 1448 295 1489 370 1489 c 0
 447 1489 475 1448 459 1378 c 2
 410 1163 l 2
 394 1093 356 1058 279 1056 c 1
 283 1068 l 1
EndSplineSet
EndChar

StartChar: uni2079
Encoding: 8313 8313 137
Width: 272
VWidth: 1920
Flags: HMW
LayerCount: 2
Fore
SplineSet
251 1014 m 0
 275 1014 297 1050 317 1136 c 2
 334 1210 l 1
 341 1155 l 1
 311 1024 259 926 209 926 c 0
 144 926 130 1000 162 1139 c 2
 197 1289 l 2
 228 1424 279 1489 366 1489 c 0
 459 1489 455 1402 413 1221 c 2
 336 890 l 2
 293 702 248 610 148 610 c 0
 60 610 59 707 84 816 c 2
 85 820 l 2
 93 854 113 871 135 871 c 2
 139 871 l 2
 171 871 171 844 161 800 c 2
 157 783 l 2
 146 734 140 702 172 702 c 0
 212 702 229 757 265 911 c 2
 346 1262 l 2
 367 1352 376 1398 343 1398 c 0
 315 1398 296 1348 277 1264 c 2
 252 1156 l 2
 232 1070 225 1014 251 1014 c 0
EndSplineSet
EndChar

StartChar: uni00B9
Encoding: 185 185 138
Width: 258
VWidth: 1920
Flags: HMW
LayerCount: 2
Fore
SplineSet
326 1469 m 0
 335 1474 341 1478 353 1491 c 0
 358 1497 365 1507 377 1507 c 2
 378 1507 l 2
 390 1507 398 1495 392 1471 c 2
 213 696 l 2
 203 652 189 625 157 625 c 2
 149 625 l 2
 117 625 117 652 127 696 c 2
 293 1416 l 2
 301 1450 308 1460 326 1469 c 0
EndSplineSet
EndChar

StartChar: cent
Encoding: 162 162 154
Width: 373
VWidth: 1920
Flags: HMW
LayerCount: 2
Fore
SplineSet
373 1255 m 6
 375 1255 l 6
 389 1255 390 1239 387 1225 c 6
 64 -175 l 6
 61 -189 52 -205 38 -205 c 6
 36 -205 l 6
 22 -205 21 -189 24 -175 c 6
 347 1225 l 6
 350 1239 359 1255 373 1255 c 6
EndSplineSet
Refer: 40 99 N 1 0 0 1 0 0 2
EndChar

StartChar: uni203D
Encoding: 8253 8253 157
Width: 534
VWidth: 1920
Flags: HMW
LayerCount: 2
Fore
SplineSet
294 935 m 2
 340 1135 l 2
 351 1182 375 1210 412 1210 c 2
 419 1210 l 2
 456 1210 468 1182 457 1135 c 2
 411 935 l 2
 409 928 408 922 405 915 c 2
 266 441 l 2
 263 434 248 416 241 416 c 2
 239 416 l 2
 217 416 212 434 220 481 c 2
 289 915 l 2
 290 922 292 928 294 935 c 2
146 -15 m 6
 143 -15 l 6
 91 -15 68 23 68 90 c 6
 68 99 l 6
 68 166 91 204 143 204 c 6
 146 204 l 6
 198 204 221 166 221 99 c 6
 221 90 l 6
 221 23 198 -15 146 -15 c 6
242 416 m 2
 240 416 l 2
 236 416 226 433 227 436 c 0
 246 611 391 626 473 982 c 2
 520 1185 l 2
 534 1244 529 1334 449 1334 c 0
 366 1334 321 1240 306 1176 c 2
 262 986 l 2
 252 942 230 916 196 916 c 2
 188 916 l 2
 154 916 144 942 154 986 c 2
 195 1166 l 2
 225 1294 308 1423 477 1423 c 0
 627 1423 670 1305 641 1181 c 2
 600 1004 l 2
 528 690 347 645 288 476 c 0
 273 433 260 416 242 416 c 2
EndSplineSet
EndChar

StartChar: ordfeminine
Encoding: 170 170 159
Width: 372
VWidth: 1920
Flags: HMW
LayerCount: 2
Fore
SplineSet
190 841 m 4
 168 745 168 693 200 693 c 4
 239 693 287 810 318 946 c 5
 328 893 l 5
 296 753 241 609 155 609 c 4
 83 609 73 698 105 836 c 4
 141 992 205 1053 294 1101 c 4
 337 1124 368 1162 386 1238 c 5
 385 1152 l 5
 372 1095 359 1074 307 1042 c 4
 265 1016 217 959 190 841 c 4
294 842 m 6
 391 1262 l 6
 409 1339 423 1409 388 1409 c 4
 352 1409 334 1358 313 1266 c 4
 305 1230 285 1203 256 1203 c 6
 250 1203 l 6
 221 1203 220 1230 232 1266 c 4
 271 1382 298 1489 409 1489 c 4
 519 1489 514 1395 467 1190 c 6
 386 842 l 6
 370 773 366 743 366 701 c 4
 367 656 353 629 319 629 c 6
 315 629 l 6
 281 629 270 656 273 700 c 4
 276 744 278 772 294 842 c 6
EndSplineSet
EndChar

StartChar: exclamdown
Encoding: 161 161 160
Width: 290
VWidth: 1920
Flags: HMW
LayerCount: 2
Fore
SplineSet
244 1065 m 6
 247 1065 l 6
 299 1065 322 1027 322 960 c 6
 322 951 l 6
 322 884 299 846 247 846 c 6
 244 846 l 6
 192 846 169 884 169 951 c 6
 169 960 l 6
 169 1027 192 1065 244 1065 c 6
114 100 m 2
 15 -330 l 2
 2 -387 -33 -415 -70 -415 c 2
 -71 -415 l 2
 -108 -415 -129 -387 -116 -330 c 2
 -17 100 l 2
 -15 107 -14 113 -11 120 c 2
 128 571 l 2
 143 618 157 626 169 626 c 2
 172 626 l 2
 184 626 194 618 187 571 c 2
 118 120 l 2
 117 113 116 107 114 100 c 2
EndSplineSet
EndChar

StartChar: AE
Encoding: 198 198 161
Width: 749
VWidth: 1920
Flags: HMW
LayerCount: 2
Fore
SplineSet
166 498 m 1
 424 498 l 1
 424 417 l 1
 166 417 l 1
 166 498 l 1
645 1400 m 5
 20 80 l 6
 -5 26 -25 -15 -62 -15 c 6
 -63 -15 l 6
 -100 -15 -99 28 -74 80 c 6
 539 1340 l 6
 560 1383 580 1400 627 1400 c 6
 645 1400 l 5
EndSplineSet
Refer: 16 69 N 1 0 0 1 309 0 2
EndChar

StartChar: questiondown
Encoding: 191 191 162
Width: 421
VWidth: 1920
Flags: HMW
LayerCount: 2
Fore
SplineSet
315 1065 m 6
 318 1065 l 6
 370 1065 393 1027 393 960 c 6
 393 951 l 6
 393 884 370 846 318 846 c 6
 315 846 l 6
 263 846 240 884 240 951 c 6
 240 960 l 6
 240 1027 263 1065 315 1065 c 6
259 661 m 2
 266 661 l 2
 285 661 295 645 287 612 c 0
 247 439 152 443 68 81 c 2
 8 -176 l 2
 -7 -240 -21 -328 23 -328 c 0
 69 -328 93 -238 109 -168 c 2
 158 43 l 2
 168 87 192 113 226 113 c 2
 228 113 l 2
 262 113 276 87 266 43 c 2
 216 -172 l 2
 189 -288 129 -417 -4 -417 c 0
 -123 -417 -142 -297 -116 -183 c 2
 -59 64 l 2
 11 368 119 404 211 612 c 0
 225 644 240 661 259 661 c 2
EndSplineSet
EndChar

StartChar: yen
Encoding: 165 165 163
Width: 465
VWidth: 1920
Flags: HMW
LayerCount: 2
Fore
SplineSet
15 500 m 14
 15 502 l 22
 15 526 30 532 74 532 c 14
 383 532 l 22
 427 532 443 526 443 502 c 14
 443 500 l 22
 443 476 427 470 383 470 c 14
 74 470 l 22
 30 470 15 476 15 500 c 14
46 636 m 10
 46 638 l 18
 46 662 61 667 105 667 c 10
 414 667 l 18
 458 667 474 662 474 638 c 10
 474 636 l 18
 474 612 458 605 414 605 c 10
 105 605 l 18
 61 605 46 612 46 636 c 10
EndSplineSet
Refer: 36 89 N 1 0 0 1 0 0 2
EndChar

StartChar: gravecomb
Encoding: 768 768 164
Width: 0
Flags: HMW
AnchorPoint: "top" -500 1000 mark 0
LayerCount: 2
Fore
SplineSet
-453 1089 m 6
 -454 1089 l 6
 -478 1089 -487 1110 -500 1154 c 6
 -554 1340 l 6
 -567 1384 -526 1415 -492 1415 c 6
 -489 1415 l 6
 -455 1415 -434 1393 -431 1340 c 6
 -420 1154 l 6
 -417 1110 -429 1089 -453 1089 c 6
EndSplineSet
EndChar

StartChar: acutecomb
Encoding: 769 769 165
Width: 0
Flags: HMW
AnchorPoint: "top" -437 1000 mark 0
LayerCount: 2
Fore
SplineSet
-396 1089 m 6
 -420 1089 -422 1110 -399 1154 c 6
 -302 1340 l 6
 -275 1393 -242 1415 -208 1415 c 6
 -205 1415 l 6
 -171 1415 -146 1384 -179 1340 c 6
 -319 1154 l 6
 -352 1110 -371 1089 -395 1089 c 6
 -396 1089 l 6
EndSplineSet
EndChar

StartChar: uni0302
Encoding: 770 770 166
Width: 0
VWidth: 1920
Flags: HMW
AnchorPoint: "top" -446 1000 mark 0
LayerCount: 2
Fore
SplineSet
-381 1288 m 5
 -460 1160 l 6
 -485 1120 -507 1085 -531 1085 c 6
 -534 1085 l 6
 -558 1085 -567 1109 -538 1160 c 6
 -438 1340 l 6
 -414 1384 -386 1415 -352 1415 c 6
 -349 1415 l 6
 -315 1415 -303 1384 -298 1340 c 6
 -277 1160 l 6
 -272 1109 -290 1085 -316 1085 c 6
 -319 1085 l 6
 -344 1085 -349 1121 -356 1160 c 6
 -381 1288 l 5
EndSplineSet
EndChar

StartChar: tildecomb
Encoding: 771 771 167
Width: 0
Flags: HMW
AnchorPoint: "top" -461 1000 mark 0
LayerCount: 2
Fore
SplineSet
-468 1238 m 0
 -488 1238 -497 1221 -504 1192 c 0
 -515 1146 -531 1128 -549 1128 c 2
 -556 1128 l 2
 -575 1128 -585 1146 -568 1192 c 0
 -540 1269 -504 1310 -450 1310 c 0
 -374 1310 -381 1188 -342 1188 c 0
 -322 1188 -309 1216 -303 1244 c 0
 -292 1291 -276 1309 -258 1309 c 2
 -252 1309 l 2
 -233 1309 -223 1291 -240 1244 c 0
 -268 1167 -304 1128 -358 1128 c 0
 -434 1128 -429 1238 -468 1238 c 0
EndSplineSet
EndChar

StartChar: uni0304
Encoding: 772 772 168
Width: 0
VWidth: 1920
Flags: HMW
AnchorPoint: "top" -420.132 1000 mark 0
LayerCount: 2
Fore
SplineSet
-540 1248 m 10
 -540 1249 l 18
 -540 1270 -521 1285 -483 1285 c 10
 -297 1285 l 18
 -259 1285 -240 1270 -240 1249 c 10
 -240 1248 l 18
 -240 1227 -259 1212 -297 1212 c 10
 -483 1212 l 18
 -521 1212 -540 1227 -540 1248 c 10
EndSplineSet
EndChar

StartChar: uni0306
Encoding: 774 774 169
Width: 0
VWidth: 1920
Flags: HMW
AnchorPoint: "top" -449 1000 mark 0
LayerCount: 2
Fore
SplineSet
-380 1301 m 4
 -338 1301 -301 1324 -288 1354 c 4
 -277 1378 -261 1395 -237 1395 c 6
 -235 1395 l 6
 -211 1395 -203 1379 -212 1352 c 4
 -236 1283 -292 1223 -398 1223 c 4
 -504 1223 -532 1284 -523 1354 c 4
 -519 1378 -505 1395 -481 1395 c 6
 -479 1395 l 6
 -455 1395 -446 1379 -447 1353 c 4
 -448 1322 -421 1301 -380 1301 c 4
EndSplineSet
EndChar

StartChar: uni0307
Encoding: 775 775 170
Width: 0
Flags: HMW
AnchorPoint: "top" -569 1148 mark 0
LayerCount: 2
Fore
SplineSet
-548 1213 m 2
 -552 1213 l 2
 -587 1213 -612 1242 -612 1273 c 2
 -612 1277 l 2
 -612 1308 -587 1337 -552 1337 c 2
 -548 1337 l 2
 -513 1337 -488 1308 -488 1277 c 2
 -488 1273 l 2
 -488 1242 -513 1213 -548 1213 c 2
EndSplineSet
EndChar

StartChar: uni0308
Encoding: 776 776 171
Width: 0
Flags: HMW
AnchorPoint: "top" -578 1000 mark 0
LayerCount: 2
Fore
SplineSet
-634 1117 m 2
 -638 1117 l 2
 -673 1117 -698 1146 -698 1177 c 2
 -698 1181 l 2
 -698 1212 -673 1241 -638 1241 c 2
 -634 1241 l 2
 -599 1241 -574 1212 -574 1181 c 2
 -574 1177 l 2
 -574 1146 -599 1117 -634 1117 c 2
-454 1117 m 2
 -458 1117 l 2
 -493 1117 -518 1146 -518 1177 c 2
 -518 1181 l 2
 -518 1212 -493 1241 -458 1241 c 2
 -454 1241 l 2
 -419 1241 -394 1212 -394 1181 c 2
 -394 1177 l 2
 -394 1146 -419 1117 -454 1117 c 2
EndSplineSet
EndChar

StartChar: uni030A
Encoding: 778 778 172
Width: 0
Flags: HMW
AnchorPoint: "top" -594 1000 mark 0
LayerCount: 2
Fore
SplineSet
-458 1214 m 0
 -458 1162 -502 1120 -554 1120 c 0
 -607 1120 -652 1161 -652 1214 c 0
 -652 1265 -607 1310 -554 1310 c 0
 -501 1310 -458 1268 -458 1214 c 0
-504 1214 m 0
 -504 1242 -527 1262 -554 1262 c 0
 -581 1262 -604 1239 -604 1214 c 0
 -604 1187 -581 1166 -554 1166 c 0
 -528 1166 -504 1189 -504 1214 c 0
EndSplineSet
EndChar

StartChar: uni030B
Encoding: 779 779 173
Width: 0
Flags: HMW
AnchorPoint: "top" -431 1000 mark 0
LayerCount: 2
Fore
SplineSet
-329 1089 m 2
 -353 1089 -355 1110 -332 1154 c 2
 -235 1340 l 2
 -208 1393 -175 1415 -141 1415 c 2
 -138 1415 l 2
 -104 1415 -79 1384 -112 1340 c 2
 -252 1154 l 2
 -285 1110 -304 1089 -328 1089 c 2
 -329 1089 l 2
-506 1089 m 2
 -530 1089 -532 1110 -509 1154 c 2
 -412 1340 l 2
 -385 1393 -352 1415 -318 1415 c 2
 -315 1415 l 2
 -281 1415 -256 1384 -289 1340 c 2
 -429 1154 l 2
 -462 1110 -481 1089 -505 1089 c 2
 -506 1089 l 2
EndSplineSet
EndChar

StartChar: uni030C
Encoding: 780 780 174
Width: 0
Flags: HMW
AnchorPoint: "top" -443 1000 mark 0
LayerCount: 2
Fore
SplineSet
-389 1233 m 1
 -310 1361 l 2
 -285 1401 -263 1436 -239 1436 c 2
 -236 1436 l 2
 -212 1436 -203 1412 -232 1361 c 2
 -332 1181 l 2
 -356 1137 -384 1106 -418 1106 c 2
 -421 1106 l 2
 -455 1106 -467 1137 -472 1181 c 2
 -493 1361 l 2
 -498 1412 -480 1436 -454 1436 c 2
 -451 1436 l 2
 -426 1436 -421 1400 -414 1361 c 2
 -389 1233 l 1
EndSplineSet
EndChar

StartChar: uni030F
Encoding: 783 783 175
Width: 0
Flags: HMW
AnchorPoint: "top" -460 1000 mark 0
LayerCount: 2
Fore
SplineSet
-510 1089 m 2
 -511 1089 l 2
 -535 1089 -544 1110 -557 1154 c 2
 -611 1340 l 2
 -624 1384 -583 1415 -549 1415 c 2
 -546 1415 l 2
 -512 1415 -491 1393 -488 1340 c 2
 -477 1154 l 2
 -474 1110 -486 1089 -510 1089 c 2
-333 1089 m 2
 -334 1089 l 2
 -358 1089 -367 1110 -380 1154 c 2
 -434 1340 l 2
 -447 1384 -406 1415 -372 1415 c 2
 -369 1415 l 2
 -335 1415 -314 1393 -311 1340 c 2
 -300 1154 l 2
 -297 1110 -309 1089 -333 1089 c 2
EndSplineSet
EndChar

StartChar: uni0311
Encoding: 785 785 176
Width: 0
Flags: HMW
AnchorPoint: "top" -458 1152 mark 0
LayerCount: 2
Fore
SplineSet
-422 1309 m 0
 -464 1309 -500 1286 -513 1256 c 0
 -524 1232 -540 1215 -564 1215 c 2
 -566 1215 l 2
 -590 1215 -599 1231 -590 1258 c 0
 -566 1327 -510 1387 -404 1387 c 0
 -298 1387 -269 1326 -278 1256 c 0
 -282 1232 -296 1215 -320 1215 c 2
 -322 1215 l 2
 -346 1215 -356 1231 -355 1257 c 0
 -354 1288 -381 1309 -422 1309 c 0
EndSplineSet
EndChar

StartChar: dotbelowcomb
Encoding: 803 803 177
Width: 0
Flags: HMW
AnchorPoint: "bottom" -501 0 mark 0
LayerCount: 2
Fore
SplineSet
-548 -314 m 2
 -552 -314 l 2
 -587 -314 -612 -285 -612 -254 c 2
 -612 -250 l 2
 -612 -219 -587 -190 -552 -190 c 2
 -548 -190 l 2
 -513 -190 -488 -219 -488 -250 c 2
 -488 -254 l 2
 -488 -285 -513 -314 -548 -314 c 2
EndSplineSet
EndChar

StartChar: uni0326
Encoding: 806 806 178
Width: 0
Flags: HMW
AnchorPoint: "bottom" -681 0 mark 0
LayerCount: 2
Fore
SplineSet
-860 -485 m 2
 -860 -485 l 2
 -870 -485 -874 -478 -857 -456 c 2
 -785 -360 l 257
 -791 -360 l 2
 -819 -360 -836 -330 -828 -297 c 2
 -826 -291 l 2
 -817 -253 -783 -223 -739 -223 c 2
 -734 -223 l 2
 -690 -223 -669 -253 -678 -291 c 2
 -680 -297 l 2
 -686 -324 -708 -353 -735 -377 c 2
 -778 -417 l 2
 -836 -470 -850 -485 -860 -485 c 2
EndSplineSet
EndChar

StartChar: uni0327
Encoding: 807 807 179
Width: 1200
Flags: HMW
AnchorPoint: "bottom" -631 0 mark 0
LayerCount: 2
Fore
SplineSet
-846 -501 m 4
 -890 -501 -916 -490 -931 -479 c 4
 -945 -468 -951 -455 -937 -433 c 6
 -934 -428 l 6
 -925 -414 -906 -403 -884 -415 c 4
 -868 -423 -856 -426 -830 -426 c 4
 -786 -426 -754 -416 -734 -330 c 4
 -715 -248 -756 -234 -794 -232 c 4
 -821 -231 -827 -227 -828 -219 c 6
 -828 -216 l 6
 -829 -208 -822 -199 -819 -195 c 6
 -633 34 l 5
 -549 34 l 5
 -739 -193 l 5
 -731 -191 -721 -188 -713 -188 c 4
 -670 -188 -622 -211 -649 -330 c 4
 -681 -467 -766 -501 -846 -501 c 4
EndSplineSet
EndChar

StartChar: uni0328
Encoding: 808 808 180
Width: 1200
Flags: HMW
AnchorPoint: "ogonek" -671 0 mark 0
LayerCount: 2
Fore
SplineSet
-718 -348 m 6
 -719 -351 l 6
 -725 -375 -745 -393 -779 -393 c 2
 -789 -393 l 2
 -882 -393 -935 -333 -909 -220 c 0
 -881 -97 -792 -45 -658 38 c 1
 -637 0 l 1
 -740 -68 -794 -105 -815 -196 c 0
 -832 -268 -805 -302 -763 -302 c 2
 -758 -302 l 2
 -724 -302 -712 -324 -718 -348 c 6
EndSplineSet
EndChar

StartChar: uni0312
Encoding: 786 786 181
Width: 0
Flags: HMW
AnchorPoint: "top" -544 950 mark 0
LayerCount: 2
Fore
SplineSet
-306 1462 m 2
 -304 1462 l 2
 -296 1462 -289.515914489 1447.76152019 -299 1433 c 2
 -407 1240 l 1
 -406 1240 l 2
 -377 1240 -362 1209 -362 1160 c 2
 -362 1151 l 2
 -362 1094 -395 1036 -447 1036 c 6
 -450 1036 l 6
 -502 1036 -524 1064 -524 1121 c 2
 -524 1133 l 2
 -524 1170 -502.719928187 1208.95152603 -471 1252 c 2
 -331 1442 l 2
 -318.691037555 1456.11427694 -310 1462 -306 1462 c 2
EndSplineSet
EndChar

StartChar: sterling
Encoding: 163 163 182
Width: 487
VWidth: 1920
Flags: HMW
LayerCount: 2
Fore
SplineSet
84 687 m 14
 84 688 l 22
 84 712 100 722 144 722 c 14
 336 722 l 22
 380 722 396 712 396 688 c 14
 396 687 l 22
 396 663 380 653 336 653 c 14
 144 653 l 22
 100 653 84 663 84 687 c 14
-58 90 m 0
 15 153 128 369 182 604 c 0
 228 803 158 907 203 1100 c 0
 251 1306 308 1417 455 1417 c 0
 605 1417 599 1279 543 1017 c 0
 534 973 511 948 477 948 c 2
 473 948 l 2
 440 948 430 973 439 1017 c 0
 480 1210 512 1334 441 1334 c 0
 371 1334 352 1272 313 1105 c 0
 276 945 331 819 282 606 c 0
 230 382 110 142 38 90 c 1
 287 90 l 2
 331 90 354 79 346 45 c 2
 346 44 l 2
 338 10 310 0 266 0 c 2
 -36 0 l 2
 -80 0 -94 9 -86 43 c 2
 -86 44 l 2
 -81 66 -72 78 -58 90 c 0
EndSplineSet
EndChar

StartChar: currency
Encoding: 164 164 183
Width: 1045
Flags: HMW
LayerCount: 2
Fore
SplineSet
851 946 m 14
 853 943 l 22
 863 926 860 903 832 880 c 14
 758 819 l 22
 756 817 753 817 751 819 c 14
 710 871 l 22
 708 873 710 877 712 879 c 14
 786 939 l 22
 814 962 841 963 851 946 c 14
371 596 m 14
 412 544 l 22
 414 542 412 538 410 536 c 14
 336 476 l 22
 316 460 285 454 271 469 c 14
 268 472 l 22
 254 487 270 519 290 535 c 14
 364 596 l 22
 366 598 369 598 371 596 c 14
377 943 m 14
 382 947 l 22
 402 963 426 962 449 932 c 14
 489 879 l 22
 491 877 489 873 487 871 c 14
 422 819 l 22
 420 817 417 817 415 819 c 14
 376 873 l 22
 353 904 357 927 377 943 c 14
635 544 m 14
 694 592 l 22
 696 594 705 598 707 596 c 14
 747 542 l 22
 770 511 766 485 745 472 c 14
 741 469 l 22
 720 456 697 453 674 483 c 14
 633 536 l 22
 631 538 633 542 635 544 c 14
317 709 m 4
 348 843 485 954 619 954 c 4
 753 954 838 843 807 709 c 4
 776 575 640 464 506 464 c 4
 372 464 286 575 317 709 c 4
410 709 m 4
 390 621 438 552 526 552 c 4
 614 552 695 621 715 709 c 4
 735 797 687 866 599 866 c 4
 511 866 430 797 410 709 c 4
EndSplineSet
EndChar

StartChar: brokenbar
Encoding: 166 166 184
Width: 395
VWidth: 1920
Flags: HMW
LayerCount: 2
Fore
SplineSet
180 445 m 14
 182 445 l 22
 209 445 220 417 209 370 c 14
 55 -300 l 22
 42 -357 17 -375 -9 -375 c 14
 -10 -375 l 22
 -37 -375 -50 -357 -37 -300 c 14
 117 370 l 22
 128 417 153 445 180 445 c 14
450 1615 m 14
 452 1615 l 22
 479 1615 491 1587 480 1540 c 14
 325 870 l 22
 312 813 288 795 262 795 c 14
 261 795 l 22
 234 795 220 813 233 870 c 14
 388 1540 l 22
 399 1587 423 1615 450 1615 c 14
EndSplineSet
EndChar

StartChar: section
Encoding: 167 167 185
Width: 561
VWidth: 1920
Flags: HMW
LayerCount: 2
Fore
SplineSet
333 853 m 5
 265 853 196 745 169 627 c 4
 133 473 143 390 210 286 c 4
 293 157 344 77 307 -84 c 4
 264 -272 168 -397 51 -397 c 4
 -67 -397 -78 -276 -55 -94 c 4
 -51 -58 -26 -30 3 -30 c 6
 5 -30 l 6
 34 -30 36 -58 31 -95 c 4
 18 -195 4 -311 69 -311 c 4
 127 -311 172 -238 202 -107 c 4
 232 25 198 78 140 165 c 4
 41 316 30 449 63 592 c 4
 112 803 219 907 351 907 c 5
 333 853 l 5
226 183 m 5
 294 183 364 290 391 408 c 4
 417 519 417 645 350 749 c 4
 267 878 217 959 254 1120 c 4
 297 1308 392 1433 509 1433 c 4
 627 1433 642 1302 613 1130 c 4
 605 1084 582 1066 558 1066 c 6
 557 1066 l 6
 533 1066 520 1084 527 1131 c 4
 542 1240 556 1346 491 1346 c 4
 433 1346 384 1257 358 1143 c 4
 328 1011 362 958 420 871 c 4
 519 720 533 596 498 444 c 4
 449 233 341 129 209 129 c 5
 226 183 l 5
EndSplineSet
EndChar

StartChar: copyright
Encoding: 169 169 186
Width: 844
Flags: HMW
LayerCount: 2
Fore
SplineSet
553 589 m 4
 500 359 472 240 345 240 c 4
 242 240 252 327 284 466 c 6
 378 876 l 6
 412 1025 457 1102 548 1102 c 4
 667 1102 638 974 597 795 c 4
 592 775 581 759 561 759 c 6
 557 759 l 6
 537 759 534 775 539 795 c 4
 580 987 586 1045 542 1045 c 4
 498 1045 476 990 450 879 c 6
 353 461 l 6
 330 361 320 297 364 297 c 4
 410 297 436 338 494 589 c 4
 500 615 515 625 529 625 c 6
 534 625 l 6
 548 625 559 615 553 589 c 4
803 668 m 4
 714 284 609 -28 295 -28 c 4
 -19 -28 20 284 109 668 c 4
 198 1052 302 1366 616 1366 c 4
 930 1366 892 1052 803 668 c 4
757 668 m 4
 835 1006 894 1320 606 1320 c 4
 318 1320 233 1006 155 668 c 4
 77 330 17 18 305 18 c 4
 593 18 679 330 757 668 c 4
EndSplineSet
EndChar

StartChar: registered
Encoding: 174 174 188
Width: 844
Flags: HMW
LayerCount: 2
Fore
SplineSet
512 1065 m 5
 433 723 l 5
 456 723 l 6
 492 723 511 748 526 815 c 6
 563 973 l 6
 578 1039 571 1065 535 1065 c 6
 512 1065 l 5
547 1118 m 6
 629 1118 656 1074 632 968 c 6
 601 831 l 6
 576 724 522 688 448 688 c 5
 452 706 l 5
 528 706 564 684 546 607 c 6
 501 413 l 262
 492 374 489 330 495 310 c 4
 498 301 498 294 497 290 c 6
 496 288 l 6
 493 276 479 269 463 269 c 6
 460 269 l 6
 442 269 429 279 425 292 c 4
 416 322 426 383 433 413 c 262
 481 620 l 6
 489 655 485 674 444 674 c 6
 422 674 l 5
 338 311 l 6
 332 285 322 269 296 269 c 6
 293 269 l 6
 267 269 264 285 270 311 c 6
 446 1073 l 6
 453 1105 463 1118 501 1118 c 6
 547 1118 l 6
803 668 m 4
 714 284 609 -28 295 -28 c 4
 -19 -28 20 284 109 668 c 4
 198 1052 302 1366 616 1366 c 4
 930 1366 892 1052 803 668 c 4
757 668 m 4
 835 1006 894 1320 606 1320 c 4
 318 1320 233 1006 155 668 c 4
 77 330 17 18 305 18 c 4
 593 18 679 330 757 668 c 4
EndSplineSet
EndChar

StartChar: dotlessi
Encoding: 305 305 279
Width: 233
VWidth: 960
Flags: HMW
AnchorPoint: "top" 239.411 1050 basechar 0
LayerCount: 2
Fore
SplineSet
284 995 m 6
 67 55 l 6
 57 11 40 -15 -4 -15 c 6
 -8 -15 l 6
 -52 -15 -57 11 -47 55 c 6
 170 995 l 6
 180 1039 197 1065 241 1065 c 6
 245 1065 l 6
 289 1065 294 1039 284 995 c 6
EndSplineSet
EndChar

StartChar: uni0237
Encoding: 567 567 291
Width: 233
VWidth: 960
Flags: HMW
AnchorPoint: "top" 239 1050 basechar 0
LayerCount: 2
Fore
SplineSet
40 -59 m 2
 -9 -271 -56 -371 -155 -371 c 0
 -274 -371 -231.668923752 -199.206165653 -210 -137 c 0
 -198.467831323 -103.893972065 -180 -85 -161 -85 c 2
 -159 -85 l 2
 -141 -85 -131.935381224 -105.149647195 -144 -137 c 0
 -166.91083167 -197.484138395 -179 -284 -159 -284 c 0
 -141 -284 -103 -185 -74 -60 c 2
 170 996 l 2
 180.410804037 1041.05659452 205 1065 242 1065 c 2
 244 1065 l 2
 271 1065 294.419766648 1041.05267956 284 996 c 2
 40 -59 l 2
EndSplineSet
EndChar

StartChar: kgreenlandic
Encoding: 312 312 298
Width: 416
VWidth: 960
Flags: HMW
LayerCount: 2
Fore
SplineSet
241 1065 m 6
 245 1065 l 6
 289 1065 294 1039 284 995 c 6
 67 55 l 2
 57 11 39 -15 -4 -15 c 2
 -8 -15 l 2
 -52 -15 -57 11 -47 55 c 2
 170 995 l 6
 180 1039 197 1065 241 1065 c 6
108 417 m 1
 394 995 l 2
 414 1036 427 1065 471 1065 c 2
 474 1065 l 2
 518 1065 522 1036 499 995 c 2
 124 352 l 1
 108 417 l 1
227 595 m 1
 314 718 l 1
 305 55 l 2
 304 13 282 -15 239 -15 c 2
 236 -15 l 2
 191 -15 182 12 185 55 c 2
 227 595 l 1
EndSplineSet
EndChar

StartChar: grave
Encoding: 96 96 339
Width: 320
VWidth: 0
Flags: HMW
LayerCount: 2
Fore
SplineSet
346 1089 m 6
 345 1089 l 6
 321 1089 312 1110 299 1154 c 6
 245 1340 l 6
 232 1384 273 1415 307 1415 c 6
 310 1415 l 6
 344 1415 365 1393 368 1340 c 6
 379 1154 l 6
 382 1110 370 1089 346 1089 c 6
EndSplineSet
EndChar

StartChar: longs
Encoding: 383 383 352
Width: 273
VWidth: 960
Flags: HMW
LayerCount: 2
Fore
SplineSet
267 1334 m 6
 291 1440 325 1469 421 1464 c 4
 456 1462 469 1450 463 1426 c 6
 463 1425 l 6
 455 1392 437 1386 421 1388 c 4
 400 1391 389 1378 375 1318 c 6
 -2 -315 l 6
 -12 -359 -30 -385 -74 -385 c 6
 -75 -385 l 6
 -119 -385 -124 -359 -114 -315 c 6
 267 1334 l 6
EndSplineSet
EndChar

StartChar: uni0259
Encoding: 601 601 359
Width: 407
VWidth: 1800
Flags: HMW
LayerCount: 2
Fore
SplineSet
78 690 m 0
 161 1048 239 1068 334 1068 c 4
 474 1068 475 981 438 820 c 2
 302 229 l 2
 266 73 211 -17 75 -17 c 0
 -57 -17 -63 79 -38 200 c 0
 -10 333 -8 345 24 485 c 0
 36 537 62 559 116 559 c 2
 307 559 l 1
 293 496 l 1
 138 496 l 1
 53 117 38 56 95 56 c 0
 140 56 161 110 184 209 c 2
 330 841 l 2
 354 947 356 993 312 993 c 0
 263 993 247 933 180 688 c 0
 168 646 157 620 113 620 c 2
 109 620 l 2
 65 620 68 647 78 690 c 0
EndSplineSet
EndChar

StartChar: logicalnot
Encoding: 172 172 373
Width: 596
VWidth: 2048
Flags: HMW
LayerCount: 2
Fore
SplineSet
88 659 m 6
 90 667 l 6
 99 704 126 712 170 712 c 6
 496 712 l 6
 560 712 568 699 553 632 c 6
 497 391 l 6
 486 344 469 317 440 317 c 6
 434 317 l 6
 405 317 400 344 411 391 c 6
 463 614 l 5
 148 614 l 6
 104 614 79 622 88 659 c 6
EndSplineSet
EndChar

StartChar: acute
Encoding: 180 180 374
Width: 319
Flags: HMW
LayerCount: 2
Fore
SplineSet
236 1089 m 2
 212 1089 210 1110 233 1154 c 2
 330 1340 l 2
 357 1393 390 1415 424 1415 c 2
 427 1415 l 2
 461 1415 486 1384 453 1340 c 2
 313 1154 l 2
 280 1110 261 1089 237 1089 c 2
 236 1089 l 2
EndSplineSet
EndChar

StartChar: degree
Encoding: 176 176 376
Width: 446
VWidth: 2048
Flags: HMW
LayerCount: 2
Fore
SplineSet
212 1235 m 2
 216 1252 l 2
 239 1351 336 1417 428 1417 c 0
 520 1417 591 1351 568 1252 c 2
 564 1235 l 2
 541 1136 440 1069 348 1069 c 0
 256 1069 189 1136 212 1235 c 2
301 1230 m 2
 288 1173 319 1141 364 1141 c 0
 409 1141 460 1173 473 1230 c 2
 479 1256 l 2
 492 1313 456 1344 411 1344 c 0
 366 1344 320 1313 307 1256 c 2
 301 1230 l 2
EndSplineSet
EndChar

StartChar: plusminus
Encoding: 177 177 377
Width: 575
Flags: HMW
LayerCount: 2
Fore
SplineSet
45 557 m 14
 45 560 l 22
 45 594 72 603 106 603 c 14
 490 603 l 22
 524 603 551 595 551 561 c 14
 551 556 l 22
 551 522 524 513 490 513 c 14
 106 513 l 22
 72 513 45 523 45 557 c 14
133 939 m 10
 133 944 l 18
 133 978 160 985 194 985 c 10
 578 985 l 18
 612 985 639 976 639 942 c 10
 639 940 l 18
 639 906 612 896 578 896 c 10
 194 896 l 18
 160 896 133 905 133 939 c 10
437 1180 m 10
 443 1180 l 18
 477 1180 478 1153 468 1109 c 10
 385 749 l 18
 377 715 364 690 330 690 c 10
 324 690 l 18
 290 690 289 715 297 749 c 10
 380 1109 l 18
 390 1153 403 1180 437 1180 c 10
EndSplineSet
EndChar

StartChar: ae
Encoding: 230 230 379
Width: 597
VWidth: 960
Flags: HMW
LayerCount: 2
Fore
SplineSet
68 248 m 0
 37 112 48 79 76 79 c 0
 106 79 150 165 173 265 c 1
 214 225 l 1
 184 97 117 -18 30 -18 c 0
 -49 -18 -92 41 -46 242 c 0
 4 460 76 525 183 610 c 0
 223 641 274 699 284 743 c 1
 285 663 l 1
 277 632 221 568 195 539 c 0
 140 479 107 417 68 248 c 0
157 195 m 9
 311 862 l 2
 329 940 340 991 305 991 c 0
 269 991 244 919 203 765 c 0
 192 722 168 695 135 695 c 2
 134 695 l 2
 100 695 90 722 102 765 c 0
 159 969 215 1067 333 1067 c 0
 434 1067 414 988 378 831 c 2
 231 194 l 17
 157 195 l 9
523 360 m 4
 442 77 419 -18 275 -18 c 4
 161 -18 160 69 197 230 c 6
 334 821 l 6
 370 977 414 1067 537 1067 c 4
 660 1067 662 969 636 843 c 4
 610 716 591 640 574 565 c 4
 560 503 547 491 483 491 c 6
 292 491 l 5
 307 554 l 5
 462 554 l 5
 547 933 561 994 504 994 c 4
 459 994 438 940 415 841 c 6
 269 209 l 6
 245 103 243 57 287 57 c 4
 336 57 354 112 420 362 c 4
 431 404 452 430 486 430 c 6
 490 430 l 6
 524 430 535 403 523 360 c 4
EndSplineSet
EndChar

StartChar: paragraph
Encoding: 182 182 380
Width: 559
VWidth: 1920
Flags: HMW
LayerCount: 2
Fore
SplineSet
676 1321 m 1
 302 -300 l 2
 291 -347 278 -375 244 -375 c 6
 237 -375 l 6
 203 -375 204 -347 215 -300 c 2
 589 1321 l 1
 527 1321 l 1
 153 -300 l 2
 142 -347 129 -375 95 -375 c 6
 88 -375 l 6
 54 -375 55 -347 66 -300 c 2
 268 575 l 1
 263 575 l 2
 156 575 84 680 148 956 c 2
 162 1020 l 2
 226 1296 346 1400 453 1400 c 2
 703 1400 l 2
 745 1400 759 1389 753 1362 c 2
 753 1359 l 2
 747 1332 729 1321 685 1321 c 2
 676 1321 l 1
EndSplineSet
EndChar

StartChar: guilsinglleft
Encoding: 8249 8249 381
Width: 630
Flags: HMW
LayerCount: 2
Fore
SplineSet
365 280 m 6
 196 459 l 6
 168 489 134 518 143 555 c 6
 145 565 l 6
 154 602 197 632 243 661 c 6
 488 813 l 6
 526 837 558 836 549 799 c 6
 548 794 l 6
 539 757 509 737 463 708 c 6
 222 555 l 5
 389 385 l 6
 419 355 442 333 433 296 c 6
 432 291 l 6
 423 254 388 255 365 280 c 6
EndSplineSet
EndChar

StartChar: guilsinglright
Encoding: 8250 8250 382
Width: 630
Flags: HW
LayerCount: 2
Fore
SplineSet
279 820 m 2
 448 641 l 2
 476 611 510 582 501 545 c 2
 499 535 l 2
 490 498 447 468 401 439 c 2
 156 287 l 2
 118 263 85 264 94 301 c 2
 96 306 l 2
 105 343 134 363 180 392 c 2
 422 545 l 1
 255 715 l 2
 225 745 202 767 211 804 c 2
 212 809 l 2
 221 846 256 845 279 820 c 2
EndSplineSet
EndChar

StartChar: mu
Encoding: 181 181 385
Width: 409
VWidth: 1920
Flags: HW
LayerCount: 2
Fore
SplineSet
232 1065 m 6
 236 1065 l 6
 266 1065 283 1052 272 1005 c 6
 -29 -300 l 2
 -40 -347 -55 -375 -102 -375 c 2
 -106 -375 l 2
 -153 -375 -154 -347 -143 -300 c 2
 158 1005 l 6
 169 1052 195 1065 232 1065 c 6
184 -15 m 2
 175 -15 l 2
 131 -15 132 11 142 55 c 2
 156 116 l 1
 153 129 l 1
 353 995 l 2
 363 1039 381 1065 425 1065 c 2
 428 1065 l 2
 472 1065 478 1039 468 995 c 2
 251 55 l 2
 241 11 228 -15 184 -15 c 2
181 174 m 1
 155 63 117 -18 73 -18 c 0
 37 -18 -12 43 13 150 c 2
 223 1060 l 6
 224 1064 230 1065 234 1065 c 6
 231 1065 l 6
 235 1065 272 1004 271 1000 c 6
 75 153 l 2
 61 94 61 60 93 60 c 0
 129 60 152 118 176 223 c 1
 181 174 l 1
EndSplineSet
EndChar

StartChar: Eth
Encoding: 208 208 387
Width: 506
VWidth: 1920
Flags: HW
LayerCount: 2
Fore
SplineSet
27 711 m 14
 27 714 l 22
 27 748 52 757 96 757 c 14
 272 757 l 22
 316 757 341 748 341 714 c 14
 341 711 l 22
 341 677 316 668 272 668 c 14
 96 668 l 22
 52 668 27 677 27 711 c 14
EndSplineSet
Refer: 15 68 N 1 0 0 1 0 0 2
EndChar

StartChar: Dcroat
Encoding: 272 272 388
Width: 506
VWidth: 1920
Flags: HW
LayerCount: 2
Fore
SplineSet
27 711 m 14
 27 714 l 22
 27 748 52 757 96 757 c 14
 272 757 l 22
 316 757 341 748 341 714 c 14
 341 711 l 22
 341 677 316 668 272 668 c 14
 96 668 l 22
 52 668 27 677 27 711 c 14
EndSplineSet
Refer: 15 68 N 1 0 0 1 0 0 2
EndChar

StartChar: thorn
Encoding: 254 254 389
Width: 441
VWidth: 960
Flags: HW
LayerCount: 2
Fore
SplineSet
325 1465 m 2
 329 1465 l 2
 373 1465 378 1439 368 1395 c 2
 -24 -305 l 2
 -34 -349 -53 -375 -97 -375 c 2
 -100 -375 l 2
 -144 -375 -149 -349 -139 -305 c 2
 253 1395 l 2
 263 1439 281 1465 325 1465 c 2
214 846 m 1
 247 991 307 1068 388 1068 c 0
 475 1068 509 996 470 826 c 2
 330 223 l 2
 291 53 224 -17 137 -17 c 0
 56 -17 33 60 66 205 c 1
 93 205 l 1
 70 106 65 65 119 65 c 0
 169 65 192 113 215 212 c 2
 360 839 l 2
 383 938 381 985 331 985 c 0
 277 985 264 945 241 846 c 1
 214 846 l 1
EndSplineSet
EndChar

StartChar: Thorn
Encoding: 222 222 390
Width: 456
VWidth: 1800
Flags: HW
LayerCount: 2
Fore
SplineSet
353 1136 m 2
 477 1136 541 1093 491 878 c 2
 429 612 l 2
 379 396 297 354 177 354 c 2
 154 354 l 1
 86 59 l 2
 75 12 62 -15 15 -15 c 2
 10 -15 l 2
 -37 -15 -38 12 -27 59 c 2
 269 1341 l 6
 280 1388 293 1415 340 1415 c 6
 345 1415 l 6
 392 1415 393 1388 382 1341 c 6
 334 1136 l 1
 353 1136 l 2
172 435 m 1
 191 435 l 2
 254 435 285 484 311 595 c 2
 379 889 l 2
 405 1000 396 1049 333 1049 c 2
 314 1049 l 1
 172 435 l 1
EndSplineSet
EndChar

StartChar: divide
Encoding: 247 247 391
Width: 581
VWidth: 2048
Flags: HW
LayerCount: 2
Fore
SplineSet
37 691 m 10
 37 694 l 18
 37 728 63 734 107 734 c 10
 554 734 l 18
 598 734 624 728 624 694 c 10
 624 691 l 18
 624 657 598 651 554 651 c 10
 107 651 l 18
 63 651 37 657 37 691 c 10
EndSplineSet
Refer: 1 46 S 1 0 0 1 358 927 2
Refer: 1 46 S 1 0 0 1 198 225 2
EndChar

StartChar: multiply
Encoding: 215 215 392
Width: 588
VWidth: 1920
Flags: HW
LayerCount: 2
Fore
SplineSet
480 537 m 10
 473 531 l 18
 445 508 427 526 404 556 c 10
 206 814 l 18
 183 844 170 865 198 888 c 10
 205 894 l 18
 233 917 251 899 274 869 c 10
 472 611 l 18
 495 581 508 560 480 537 c 10
122 531 m 10
 117 537 l 18
 99 560 122 581 159 611 c 10
 477 869 l 18
 514 899 538 917 556 894 c 10
 561 888 l 18
 579 865 556 844 519 814 c 10
 201 556 l 18
 164 526 140 508 122 531 c 10
EndSplineSet
EndChar

StartChar: Oslash
Encoding: 216 216 393
Width: 502
VWidth: 1920
Flags: HW
LayerCount: 2
Fore
SplineSet
575 1490 m 6
 578 1489 l 6
 588 1485 586 1476 574 1444 c 6
 15 -54 l 6
 3 -86 -7 -92 -19 -88 c 6
 -22 -87 l 6
 -32 -83 -31 -74 -19 -42 c 6
 541 1456 l 6
 553 1488 563 1494 575 1490 c 6
EndSplineSet
Refer: 26 79 N 1 0 0 1 0 0 2
EndChar

StartChar: oslash
Encoding: 248 248 394
Width: 418
VWidth: 1920
Flags: HW
LayerCount: 2
Fore
SplineSet
481 1209 m 6
 484 1208 l 6
 494 1204 493 1195 480 1163 c 6
 -12 -54 l 6
 -25 -86 -34 -92 -46 -88 c 6
 -49 -87 l 6
 -59 -83 -59 -74 -46 -42 c 6
 447 1175 l 6
 460 1207 469 1213 481 1209 c 6
EndSplineSet
Refer: 52 111 N 1 0 0 1 0 0 2
EndChar

StartChar: germandbls
Encoding: 223 223 396
Width: 482
VWidth: 1920
Flags: HW
LayerCount: 2
Fore
SplineSet
216 1192 m 2
 256 1366 311 1484 424 1484 c 0
 554 1484 561 1370 525 1212 c 0
 481 1020 435 951 407 830 c 0
 358 618 456 573 396 313 c 0
 345 91 258 -28 148 -28 c 0
 107 -28 98 -9 104 16 c 2
 104 19 l 2
 110 47 142 66 169 81 c 0
 192 94 245 135 286 311 c 0
 341 549 239 574 299 834 c 0
 332 978 386 1082 415 1208 c 0
 439 1314 441 1388 407 1388 c 0
 374 1388 352 1298 323 1171 c 2
 67 59 l 2
 56 12 39 -15 -5 -15 c 2
 -7 -15 l 2
 -51 -15 -56 12 -45 59 c 2
 216 1192 l 2
EndSplineSet
EndChar

StartChar: eth
Encoding: 240 240 397
Width: 425
VWidth: 1920
Flags: HW
LayerCount: 2
Fore
SplineSet
323 1233 m 10
 321 1238 l 18
 314 1256 335 1270 371 1290 c 10
 531 1381 l 18
 567 1401 585 1399 590 1389 c 10
 591 1386 l 18
 597 1372 584 1356 548 1336 c 10
 387 1243 l 18
 351 1223 330 1215 323 1233 c 10
310 982 m 0
 259 982 234 897 210 793 c 2
 84 249 l 2
 60 147 56 68 112 68 c 0
 167 68 196 155 215 237 c 2
 362 873 l 2
 445 1232 422 1338 334 1397 c 0
 300 1419 286 1446 308 1470 c 2
 311 1473 l 2
 333 1497 356 1500 391 1478 c 0
 534 1389 552 1212 493 956 c 2
 334 269 l 2
 299 117 243 -17 87 -17 c 0
 -50 -17 -66 90 -34 229 c 2
 99 807 l 2
 131 944 177 1067 290 1067 c 0
 380 1067 408 952 386 855 c 1
 337 766 l 1
 350 825 l 2
 371 915 352 982 310 982 c 0
EndSplineSet
EndChar

StartChar: dcroat
Encoding: 273 273 398
Width: 441
VWidth: 1920
Flags: HW
LayerCount: 2
Fore
SplineSet
340 1231 m 14
 340 1234 l 22
 340 1268 365 1276 409 1276 c 14
 595 1276 l 22
 639 1276 664 1268 664 1234 c 14
 664 1231 l 22
 664 1197 639 1189 595 1189 c 14
 409 1189 l 22
 365 1189 340 1197 340 1231 c 14
EndSplineSet
Refer: 41 100 N 1 0 0 1 0 0 2
EndChar

StartChar: Hbar
Encoding: 294 294 399
Width: 505
VWidth: 1920
Flags: HW
LayerCount: 2
Fore
SplineSet
149 1083 m 14
 149 1152 l 22
 149 1156 150 1157 154 1157 c 14
 631 1157 l 22
 635 1157 636 1156 636 1152 c 14
 636 1083 l 22
 636 1079 635 1078 631 1078 c 14
 154 1078 l 22
 150 1078 149 1079 149 1083 c 14
EndSplineSet
Refer: 19 72 N 1 0 0 1 0 0 2
EndChar

StartChar: hbar
Encoding: 295 295 400
Width: 426
VWidth: 1920
Flags: HW
LayerCount: 2
Fore
SplineSet
152 1225 m 14
 152 1294 l 22
 152 1298 152 1299 156 1299 c 14
 408 1299 l 22
 412 1299 412 1298 412 1294 c 14
 412 1225 l 22
 412 1221 412 1220 408 1220 c 14
 156 1220 l 22
 152 1220 152 1221 152 1225 c 14
EndSplineSet
Refer: 45 104 N 1 0 0 1 0 0 2
EndChar

StartChar: Lslash
Encoding: 321 321 405
Width: 349
VWidth: 1920
Flags: HW
LayerCount: 2
Fore
SplineSet
377 959 m 6
 378 957 l 6
 381 945 369 934 332 915 c 6
 114 803 l 6
 81 786 61 782 58 794 c 6
 58 796 l 6
 55 807 69 821 102 838 c 6
 320 950 l 6
 357 969 374 971 377 959 c 6
EndSplineSet
Refer: 23 76 N 1 0 0 1 0 0 2
EndChar

StartChar: lslash
Encoding: 322 322 406
Width: 233
VWidth: 1920
Flags: HW
LayerCount: 2
Fore
SplineSet
366 959 m 6
 367 957 l 6
 370 945 358 934 321 915 c 6
 103 803 l 6
 70 786 50 782 47 794 c 6
 47 796 l 6
 44 807 58 821 91 838 c 6
 309 950 l 6
 346 969 363 971 366 959 c 6
EndSplineSet
Refer: 49 108 N 1 0 0 1 0 0 2
EndChar

StartChar: eng
Encoding: 331 331 408
Width: 409
VWidth: 960
Flags: HW
LayerCount: 2
Fore
SplineSet
228 1065 m 2
 237 1065 l 2
 281 1065 280 1039 270 995 c 2
 256 934 l 1
 259 921 l 1
 59 55 l 2
 49 11 31 -15 -13 -15 c 2
 -16 -15 l 2
 -60 -15 -66 11 -56 55 c 2
 161 995 l 2
 171 1039 184 1065 228 1065 c 2
226 -74 m 2
 202 -180 168 -209 72 -204 c 0
 37 -202 4 -190 10 -166 c 2
 10 -165 l 2
 18 -132 37 -121 62 -125 c 0
 83 -129 103 -118 117 -58 c 2
 337 898 l 2
 351 957 351 990 319 990 c 0
 283 990 261 933 237 828 c 1
 231 877 l 1
 257 988 296 1067 381 1067 c 0
 459 1067 476 1008 451 901 c 2
 226 -74 l 2
EndSplineSet
EndChar

StartChar: Eng
Encoding: 330 330 409
Width: 502
VWidth: 960
Flags: HW
LayerCount: 2
Fore
SplineSet
588 1415 m 2
 596 1415 l 2
 620 1415 635 1389 625 1345 c 2
 297 -74 l 2
 273 -180 239 -209 143 -204 c 0
 108 -202 75 -190 81 -166 c 2
 81 -165 l 2
 89 -132 108 -121 133 -125 c 0
 154 -129 173 -118 187 -58 c 2
 252 224 l 1
 292 1065 l 1
 59 55 l 2
 49 11 32 -15 -2 -15 c 2
 -9 -15 l 2
 -43 -15 -48 11 -38 55 c 2
 260 1345 l 2
 270 1389 302 1415 336 1415 c 2
 341 1415 l 2
 375 1415 396 1388 393 1345 c 2
 345 560 l 1
 527 1345 l 2
 537 1389 564 1415 588 1415 c 2
EndSplineSet
EndChar

StartChar: oe
Encoding: 339 339 410
Width: 636
VWidth: 960
Flags: HW
LayerCount: 2
Fore
SplineSet
-29 230 m 2
 108 821 l 2
 143 972 199 1067 328 1067 c 0
 462 1067 451 972 416 821 c 2
 279 230 l 2
 244 79 212 -18 78 -18 c 0
 -51 -18 -64 79 -29 230 c 2
81 209 m 2
 60 118 52 57 102 57 c 0
 152 57 171 118 192 209 c 2
 338 841 l 2
 359 932 368 994 318 994 c 0
 268 994 248 932 227 841 c 2
 81 209 l 2
563 360 m 0
 482 77 459 -18 315 -18 c 0
 201 -18 200 69 237 230 c 2
 374 821 l 2
 410 977 454 1067 577 1067 c 0
 700 1067 702 969 676 843 c 0
 650 716 631 640 614 565 c 0
 600 503 587 491 523 491 c 2
 332 491 l 1
 347 554 l 1
 502 554 l 1
 587 933 601 994 544 994 c 0
 499 994 478 940 455 841 c 2
 309 209 l 2
 285 103 283 57 327 57 c 0
 376 57 394 112 460 362 c 0
 471 404 492 430 526 430 c 2
 530 430 l 2
 564 430 575 403 563 360 c 0
EndSplineSet
EndChar

StartChar: OE
Encoding: 338 338 411
Width: 675
VWidth: 1920
Flags: HW
LayerCount: 2
Fore
SplineSet
480 1400 m 6
 625 1400 l 6
 629 1400 631 1399 630 1395 c 6
 309 5 l 6
 308 1 306 0 302 0 c 6
 157 0 l 6
 -19 0 -45 124 15 382 c 6
 164 1026 l 6
 224 1284 284 1400 480 1400 c 6
457 1312 m 6
 373 1312 332 1237 284 1031 c 6
 133 378 l 6
 85 172 90 88 174 88 c 6
 214 88 l 5
 497 1312 l 5
 457 1312 l 6
EndSplineSet
Refer: 16 69 N 1 0 0 1 235 0 2
EndChar

StartChar: Tbar
Encoding: 358 358 413
Width: 405
VWidth: 1920
Flags: HW
LayerCount: 2
Fore
SplineSet
59 660 m 14
 59 723 l 22
 59 727 61 728 65 728 c 14
 446 728 l 22
 450 728 452 727 452 723 c 14
 452 660 l 22
 452 656 450 655 446 655 c 14
 65 655 l 22
 61 655 59 656 59 660 c 14
EndSplineSet
Refer: 31 84 N 1 0 0 1 0 0 2
EndChar

StartChar: tbar
Encoding: 359 359 414
Width: 287
VWidth: 1920
Flags: HW
LayerCount: 2
Fore
SplineSet
45 590 m 14
 45 653 l 22
 45 657 46 658 50 658 c 14
 285 658 l 22
 289 658 290 657 290 653 c 14
 290 590 l 22
 290 586 289 585 285 585 c 14
 50 585 l 22
 46 585 45 586 45 590 c 14
EndSplineSet
Refer: 57 116 N 1 0 0 1 0 0 2
EndChar

StartChar: florin
Encoding: 402 402 415
Width: 233
VWidth: 960
Flags: HW
LayerCount: 2
Fore
SplineSet
307 974 m 2
 201 974 l 2
 157 974 141 985 141 1009 c 2
 141 1015 l 2
 141 1039 157 1050 201 1050 c 2
 307 1050 l 2
 351 1050 367 1039 367 1015 c 2
 367 1009 l 2
 367 985 351 974 307 974 c 2
225 1145 m 2
 274 1357 331 1457 430 1457 c 0
 548 1457 498.924123479 1291.05154349 472 1213 c 0
 463.821535317 1189.29108363 448 1171 429 1171 c 2
 425 1171 l 2
 407 1171 397.981003652 1190.29106569 406 1213 c 0
 434.359178313 1293.31013976 444 1370 424 1370 c 0
 406 1370 368 1271 339 1146 c 2
 306 1006 l 2
 304 999 301 996 294 996 c 2
 200 996 l 2
 193 996 190 999 192 1006 c 2
 225 1145 l 2
60 -59 m 2
 11 -271 -46 -371 -145 -371 c 0
 -264 -371 -211.668923752 -198.206165653 -190 -137 c 0
 -178.300251407 -103.952823375 -168 -85 -146 -85 c 2
 -144 -85 l 2
 -122 -85 -112.6741745 -104.87951313 -124 -137 c 0
 -149.91083167 -210.484138395 -159 -284 -139 -284 c 0
 -121 -284 -83 -185 -54 -60 c 2
 195 1020 l 2
 197 1027 200 1030 207 1030 c 2
 301 1030 l 2
 308 1030 311 1027 309 1020 c 2
 60 -59 l 2
EndSplineSet
EndChar

StartChar: uni0394
Encoding: 916 916 430
Width: 455
VWidth: 960
Flags: HW
LayerCount: 2
Fore
SplineSet
-53 0 m 2
 -77 0 -94 27 -80 70 c 2
 336 1345 l 2
 350 1388 369 1415 403 1415 c 2
 457 1415 l 2
 491 1415 498 1388 492 1345 c 2
 327 70 l 2
 321 27 297 0 263 0 c 2
 -53 0 l 2
22 81 m 1
 211 81 l 1
 384 1250 l 1
 22 81 l 1
EndSplineSet
EndChar

StartChar: uni03A9
Encoding: 937 937 431
Width: 556
VWidth: 1920
Flags: HW
LayerCount: 2
Fore
SplineSet
196 98 m 4
 286 200 313 310 354 488 c 2
 484 1053 l 2
 527 1238 535 1334 440 1334 c 0
 345 1334 309 1238 266 1053 c 2
 136 488 l 2
 95 310 71 200 115 98 c 0
 118 92 132 74 126 48 c 6
 125 45 l 2
 117 11 100 0 56 0 c 2
 -38 0 l 2
 -82 0 -107 10 -99 44 c 2
 -99 45 l 2
 -91 79 -61 90 -17 90 c 2
 40 90 l 1
 -18 203 -21 326 22 512 c 2
 147 1054 l 2
 202 1291 274 1417 459 1417 c 0
 644 1417 658 1291 603 1054 c 2
 478 512 l 2
 435 326 373 203 265 90 c 1
 323 90 l 2
 367 90 389 79 381 45 c 2
 381 44 l 2
 373 10 346 0 302 0 c 2
 209 0 l 2
 165 0 148 1 158 45 c 6
 159 48 l 6
 165 74 189 91 196 98 c 4
EndSplineSet
EndChar

StartChar: pi
Encoding: 960 960 432
Width: 473
VWidth: 1920
Flags: HW
LayerCount: 2
Fore
SplineSet
301 1020 m 2
 79 55 l 2
 69 11 42 -15 8 -15 c 2
 4 -15 l 2
 -30 -15 -45 11 -35 55 c 2
 187 1020 l 2
 188 1024 190 1025 194 1025 c 2
 298 1025 l 2
 302 1025 302 1024 301 1020 c 2
367 42 m 2
 366 40 l 2
 358 6 340 -9 286 -10 c 4
 184 -13 143 22 168 132 c 2
 361 965 l 2
 371 1009 388 1035 432 1035 c 2
 433 1035 l 2
 477 1035 482 1009 472 965 c 2
 282 145 l 2
 267 82 296 74 335 74 c 0
 357 74 375 75 367 42 c 2
107 1004 m 10
 107 1006 l 18
 115 1040 143 1050 187 1050 c 10
 506 1050 l 18
 550 1050 574 1040 566 1006 c 10
 566 1004 l 18
 558 970 530 960 486 960 c 10
 167 960 l 18
 123 960 99 970 107 1004 c 10
EndSplineSet
EndChar

StartChar: minute
Encoding: 8242 8242 433
Width: 221
VWidth: 1920
Flags: HW
LayerCount: 2
Fore
SplineSet
138 915 m 2
 136 915 l 2
 122 915 117 924 123 940 c 2
 262 1340 l 2
 282 1396 311 1420 345 1420 c 2
 349 1420 l 2
 393 1420 392 1383 370 1340 c 2
 167 940 l 2
 159 925 152 915 138 915 c 2
EndSplineSet
EndChar

StartChar: Euro
Encoding: 8364 8364 435
Width: 511
VWidth: 1920
Flags: HW
LayerCount: 2
Fore
SplineSet
-28 601 m 14
 -28 609 l 22
 -28 633 -2 639 42 639 c 14
 235 639 l 22
 279 639 305 633 305 609 c 14
 305 601 l 22
 305 577 279 571 235 571 c 14
 42 571 l 22
 -2 571 -28 577 -28 601 c 14
12 776 m 10
 12 784 l 18
 12 808 38 814 82 814 c 10
 275 814 l 18
 319 814 345 808 345 784 c 10
 345 776 l 18
 345 752 319 746 275 746 c 10
 82 746 l 18
 38 746 12 752 12 776 c 10
404 326 m 0
 380 220 319 -18 114 -18 c 0
 -59 -18 -43 127 10 358 c 2
 168 1042 l 2
 225 1290 298 1418 450 1418 c 0
 649 1418 606 1266 592 1164 c 0
 586 1120 565 1095 531 1095 c 2
 524 1095 l 2
 490 1095 489 1120 495 1164 c 0
 508 1264 513 1323 440 1323 c 0
 367 1323 330 1231 287 1046 c 2
 127 349 l 2
 89 183 70 77 144 77 c 0
 220 77 277 201 306 326 c 0
 316 370 331 385 365 385 c 2
 373 385 l 2
 407 385 414 370 404 326 c 0
EndSplineSet
EndChar

StartChar: uni2116
Encoding: 8470 8470 436
Width: 799
VWidth: 1920
Flags: HW
LayerCount: 2
Fore
SplineSet
421 40 m 10
 421 43 l 18
 421 77 446 83 490 83 c 10
 629 83 l 18
 673 83 699 77 699 43 c 10
 699 40 l 18
 699 6 673 0 629 0 c 10
 490 0 l 18
 446 0 421 6 421 40 c 10
EndSplineSet
Refer: 132 8304 S 1 0 0 1 399 -295 2
Refer: 25 78 N 1 0 0 1 0 0 2
EndChar

StartChar: trademark
Encoding: 8482 8482 437
Width: 682
VWidth: 1920
Flags: HW
LayerCount: 2
Fore
SplineSet
282 1400 m 2
 436 1400 l 2
 478 1400 493 1393 487 1369 c 2
 486 1365 l 2
 480 1341 463 1334 421 1334 c 2
 382 1334 l 1
 214 606 l 2
 206 572 195 545 163 545 c 2
 161 545 l 2
 129 545 130 572 138 606 c 2
 306 1334 l 1
 267 1334 l 2
 225 1334 210 1341 216 1365 c 2
 217 1369 l 2
 223 1393 240 1400 282 1400 c 2
562 1275 m 1
 408 606 l 2
 400 572 385 545 363 545 c 2
 361 545 l 2
 339 545 339 572 347 606 c 2
 517 1344 l 2
 527 1388 552 1415 584 1415 c 2
 588 1415 l 2
 623 1415 629 1388 624 1344 c 2
 569 854 l 1
 734 1344 l 2
 749 1388 776 1415 808 1415 c 2
 810 1415 l 2
 842 1415 846 1388 836 1344 c 2
 666 606 l 2
 658 572 651 545 619 545 c 2
 614 545 l 2
 582 545 587 572 595 606 c 2
 737 1221 l 1
 512 566 l 2
 507 552 500 545 491 545 c 2
 489 545 l 2
 480 545 477 552 478 566 c 2
 562 1275 l 1
EndSplineSet
EndChar

StartChar: partialdiff
Encoding: 8706 8706 438
Width: 450
VWidth: 1920
Flags: HW
LayerCount: 2
Fore
SplineSet
280 802 m 0
 226 802 209 749 189 664 c 2
 82 200 l 2
 63 116 61 70 120 70 c 0
 177 70 203 154 222 235 c 2
 351 792 l 2
 441 1184 431 1273 343 1360 c 0
 311 1392 296 1400 316 1427 c 6
 318 1429 l 6
 338 1456 359 1460 401 1434 c 0
 526 1358 555 1195 453 755 c 2
 341 268 l 2
 306 116 259 -18 96 -18 c 0
 -43 -18 -65 53 -35 185 c 2
 77 671 l 2
 107 801 148 886 263 886 c 0
 379 886 387 821 365 724 c 1
 315 635 l 1
 328 693 l 2
 348 778 330 802 280 802 c 0
EndSplineSet
EndChar

StartChar: summation
Encoding: 8721 8721 439
Width: 450
VWidth: 1920
Flags: HW
LayerCount: 2
Fore
SplineSet
343 456 m 2
 0 -259 l 1
 172 -259 l 2
 216 -259 239 -272 230 -309 c 2
 229 -311 l 2
 220 -348 193 -360 149 -360 c 2
 -94 -360 l 2
 -148 -360 -155 -335 -129 -281 c 2
 263 520 l 1
 241 1321 l 2
 239 1375 258 1400 312 1400 c 2
 555 1400 l 2
 599 1400 622 1388 613 1351 c 2
 612 1349 l 2
 603 1312 576 1299 532 1299 c 2
 360 1299 l 1
 373 584 l 2
 375 526 371 514 343 456 c 2
EndSplineSet
EndChar

StartChar: minus
Encoding: 8722 8722 440
Width: 584
Flags: HW
LayerCount: 2
Fore
SplineSet
50 279 m 10
 50 288 l 18
 50 309 69 328 107 328 c 10
 478 328 l 18
 516 328 535 309 535 288 c 10
 535 279 l 18
 535 258 516 239 478 239 c 10
 107 239 l 18
 69 239 50 258 50 279 c 10
EndSplineSet
EndChar

StartChar: integral
Encoding: 8747 8747 441
Width: 256
VWidth: 960
Flags: HW
LayerCount: 2
Fore
SplineSet
37 -74 m 2
 13 -180 -19 -209 -115 -204 c 0
 -150 -202 -183 -190 -177 -166 c 2
 -177 -165 l 2
 -169 -132 -150 -121 -125 -125 c 0
 -104 -129 -85 -118 -71 -58 c 2
 250 1334 l 2
 274 1440 308 1469 404 1464 c 0
 439 1462 452 1450 446 1426 c 2
 446 1425 l 2
 438 1392 420 1386 404 1388 c 0
 383 1391 372 1378 358 1318 c 2
 37 -74 l 2
EndSplineSet
EndChar

StartChar: radical
Encoding: 8730 8730 443
Width: 468
VWidth: 1920
Flags: HMW
LayerCount: 2
Fore
SplineSet
279 1050 m 2
 333 1050 342 1026 334 970 c 2
 243 339 l 1
 570 1541 l 2
 583 1588 601 1600 635 1600 c 2
 638 1600 l 2
 672 1600 686 1587 671 1541 c 2
 168 -64 l 2
 160 -91 146 -92 148 -64 c 2
 250 949 l 1
 229 949 l 2
 185 949 162 962 171 999 c 2
 171 1000 l 2
 180 1037 208 1050 252 1050 c 2
 279 1050 l 2
EndSplineSet
EndChar

StartChar: infinity
Encoding: 8734 8734 444
Width: 698
VWidth: 1414
Flags: HMW
LayerCount: 2
Fore
SplineSet
182 483 m 0
 81 483 41 568 63 665 c 0
 85 762 164 845 265 845 c 0
 346 845 382 791 395 715 c 1
 444 791 503 845 584 845 c 0
 685 845 725 762 703 665 c 0
 681 568 602 483 501 483 c 0
 420 483 375 537 372 614 c 1
 322 537 263 483 182 483 c 0
214 568 m 0
 257 568 305 606 346 665 c 1
 334 723 302 762 259 762 c 0
 210 762 168 726 154 665 c 0
 140 605 165 568 214 568 c 0
507 568 m 0
 556 568 598 605 612 665 c 0
 626 726 601 762 552 762 c 0
 510 762 460 723 422 665 c 1
 424 607 465 568 507 568 c 0
EndSplineSet
EndChar

StartChar: product
Encoding: 8719 8719 445
Width: 591
VWidth: 1920
Flags: HW
LayerCount: 2
Fore
SplineSet
649 1400 m 2
 703 1400 719 1378 706 1321 c 2
 415 59 l 2
 404 12 377 -15 343 -15 c 2
 339 -15 l 2
 305 -15 291 12 302 59 c 2
 588 1299 l 1
 364 1299 l 1
 78 59 l 2
 67 12 40 -15 6 -15 c 2
 2 -15 l 2
 -32 -15 -47 12 -36 59 c 2
 253 1311 l 18
 266 1368 294 1400 348 1400 c 10
 649 1400 l 2
EndSplineSet
EndChar

StartChar: uni2219
Encoding: 8729 8729 446
Width: 270
Flags: HW
LayerCount: 2
Fore
SplineSet
94 675 m 4
 94 722 126 755 173 755 c 4
 220 755 253 722 253 675 c 4
 253 628 223 595 176 595 c 4
 129 595 94 628 94 675 c 4
EndSplineSet
EndChar

StartChar: approxequal
Encoding: 8776 8776 447
Width: 583
VWidth: 1298
Flags: HW
LayerCount: 2
Fore
SplineSet
219 575 m 256
 184 575 165 559 153 542 c 0
 135 516 119 503 98 503 c 2
 92 503 l 2
 65 503 51 516 71 559 c 0
 94 609 154 669 234 669 c 256
 326 669 325 609 390 609 c 256
 425 609 442 623 455 641 c 0
 473 666 486 681 513 681 c 2
 518 681 l 2
 545 681 564 672 545 635 c 0
 513 568 454 515 374 515 c 256
 282 515 296 575 219 575 c 256
176 388 m 256
 141 388 122 372 110 355 c 0
 92 329 76 316 55 316 c 2
 49 316 l 2
 22 316 8 329 28 372 c 0
 51 422 111 482 191 482 c 256
 283 482 281 422 346 422 c 256
 381 422 399 436 412 454 c 0
 430 479 443 494 470 494 c 2
 475 494 l 2
 502 494 521 486 502 449 c 0
 470 382 411 328 331 328 c 256
 239 328 253 388 176 388 c 256
EndSplineSet
EndChar

StartChar: notequal
Encoding: 8800 8800 448
Width: 537
VWidth: 1920
Flags: HW
LayerCount: 2
Fore
SplineSet
500 733 m 2
 501 732 l 2
 513 720 506 710 485 688 c 2
 101 284 l 2
 80 262 69 253 57 265 c 2
 55 267 l 2
 43 279 52 290 73 312 c 2
 457 716 l 2
 478 738 488 745 500 733 c 2
EndSplineSet
Refer: 83 61 N 1 0 0 1 0 0 2
EndChar

StartChar: lessequal
Encoding: 8804 8804 449
Width: 517
VWidth: 1920
Flags: HW
LayerCount: 2
Fore
SplineSet
-18 385 m 14
 -18 392 l 22
 -18 426 8 432 52 432 c 14
 340 432 l 22
 384 432 410 426 410 392 c 14
 410 385 l 22
 410 351 384 345 340 345 c 14
 52 345 l 22
 8 345 -18 351 -18 385 c 14
EndSplineSet
Refer: 84 60 N 1 0 0 1 5 160 2
EndChar

StartChar: greaterequal
Encoding: 8805 8805 450
Width: 517
VWidth: 1920
Flags: HW
LayerCount: 2
Fore
SplineSet
-18 385 m 14
 -18 392 l 22
 -18 426 8 432 52 432 c 14
 340 432 l 22
 384 432 410 426 410 392 c 14
 410 385 l 22
 410 351 384 345 340 345 c 14
 52 345 l 22
 8 345 -18 351 -18 385 c 14
EndSplineSet
Refer: 85 62 N 1 0 0 1 -5 160 2
EndChar

StartChar: lozenge
Encoding: 9674 9674 451
Width: 641
Flags: HW
LayerCount: 2
Fore
SplineSet
208 90 m 2
 131 598 l 2
 119 680 134 745 184 827 c 2
 495 1332 l 2
 522 1376 538 1378 543 1332 c 2
 601 835 l 2
 611 749 594 673 544 587 c 2
 256 90 l 2
 229 44 215 46 208 90 c 2
281 323 m 1
 494 712 l 1
 460 1101 l 1
 235 712 l 1
 281 323 l 1
EndSplineSet
EndChar

StartChar: uniF8EA
Encoding: 63722 63722 452
Width: 553
VWidth: 1582
Flags: HW
LayerCount: 2
Fore
SplineSet
259 1400 m 6
 421 1400 l 6
 439 1400 449 1395 446 1384 c 6
 444 1379 l 6
 441 1368 431 1363 413 1363 c 6
 355 1363 l 5
 311 1173 l 6
 306 1150 295 1139 280 1139 c 6
 280 1139 l 6
 265 1139 260 1150 265 1173 c 6
 309 1363 l 5
 251 1363 l 6
 233 1363 223 1368 226 1379 c 6
 228 1384 l 6
 231 1395 241 1400 259 1400 c 6
496 1345 m 5
 456 1172 l 6
 451 1149 444 1139 430 1139 c 6
 428 1139 l 6
 414 1139 414 1149 419 1172 c 6
 463 1366 l 6
 468 1389 482 1404 501 1404 c 6
 505 1404 l 6
 529 1404 533 1390 536 1369 c 6
 559 1229 l 5
 650 1371 l 6
 662 1390 676 1404 691 1404 c 6
 697 1404 l 6
 710 1404 719 1397 712 1366 c 6
 668 1173 l 6
 663 1150 654 1139 639 1139 c 6
 637 1139 l 6
 622 1139 619 1150 624 1173 c 6
 660 1329 l 5
 557 1167 l 6
 548 1152 545 1148 536 1148 c 6
 535 1148 l 6
 526 1148 525 1151 523 1167 c 6
 496 1345 l 5
EndSplineSet
EndChar

StartChar: uniF8E8
Encoding: 63720 63720 453
Width: 492
Flags: HW
LayerCount: 2
Fore
SplineSet
373 1311 m 1
 354 1232 l 1
 419 1232 l 2
 448 1232 465 1244 470 1265 c 2
 473 1278 l 2
 478 1299 467 1311 438 1311 c 2
 373 1311 l 1
447 1343 m 2
 496 1343 526 1320 516 1277 c 2
 515 1272 l 2
 505 1229 465 1211 417 1211 c 1
 419 1221 l 1
 467 1221 499 1208 489 1165 c 2
 485 1150 l 2
 481 1131 482 1120 485 1110 c 0
 486 1105 487 1101 486 1098 c 2
 486 1097 l 2
 484 1089 476 1085 465 1085 c 2
 463 1085 l 2
 451 1085 444 1090 442 1099 c 0
 437 1114 439 1134 443 1150 c 2
 448 1170 l 2
 453 1191 442 1202 413 1202 c 2
 348 1202 l 1
 326 1110 l 2
 322 1094 312 1085 300 1085 c 2
 298 1085 l 2
 286 1085 280 1094 284 1110 c 2
 330 1310 l 2
 335 1331 350 1343 371 1343 c 2
 447 1343 l 2
614 1207 m 0
 587 1092 471 999 356 999 c 0
 241 999 169 1092 196 1207 c 0
 223 1322 337 1417 452 1417 c 0
 567 1417 641 1322 614 1207 c 0
588 1207 m 0
 612 1309 548 1391 446 1391 c 0
 344 1391 245 1309 221 1207 c 0
 197 1105 260 1025 362 1025 c 0
 464 1025 564 1105 588 1207 c 0
EndSplineSet
EndChar

StartChar: uniF8E9
Encoding: 63721 63721 454
Width: 492
VWidth: 1569
Flags: HW
LayerCount: 2
Fore
SplineSet
495 1158 m 4
 476 1113 434 1076 372 1076 c 4
 300 1076 275 1126 291 1194 c 6
 297 1223 l 6
 313 1291 362 1341 434 1341 c 4
 495 1341 515 1310 516 1274 c 4
 517 1260 507 1250 497 1250 c 6
 494 1250 l 6
 483 1250 481 1259 480 1271 c 4
 478 1294 460 1311 430 1311 c 4
 386 1311 352 1272 341 1225 c 6
 333 1192 l 6
 322 1145 334 1106 382 1106 c 4
 419 1106 445 1127 459 1158 c 4
 464 1169 471 1180 483 1180 c 6
 485 1180 l 6
 497 1180 500 1170 495 1158 c 4
614 1208 m 4
 587 1093 471 999 356 999 c 4
 241 999 169 1093 196 1208 c 4
 223 1323 337 1417 452 1417 c 4
 567 1417 641 1323 614 1208 c 4
588 1208 m 4
 611 1309 547 1391 446 1391 c 4
 345 1391 244 1309 221 1208 c 4
 198 1107 261 1025 362 1025 c 4
 463 1025 565 1107 588 1208 c 4
EndSplineSet
EndChar

StartChar: uni1E9E
Encoding: 7838 7838 457
Width: 555
VWidth: 1920
Flags: HW
LayerCount: 2
Fore
SplineSet
212 1097 m 2
 260 1303 328 1417 482 1417 c 0
 592 1417 616 1323 620 1214 c 0
 622 1163 617 1134 597 1086 c 2
 440 715 l 1
 479 643 529 570 477 343 c 0
 425 119 337 -18 226 -18 c 0
 177 -18 150 27 136 78 c 0
 133 89 124 126 135 172 c 2
 137 182 l 2
 147 226 183 228 186 199 c 0
 191 153 204 104 231 104 c 0
 283 104 324 171 364 346 c 0
 404 519 390 570 348 627 c 0
 327 655 318 682 342 740 c 2
 515 1145 l 1
 525 1240 517 1334 463 1334 c 0
 388 1334 361 1261 324 1101 c 2
 83 55 l 2
 73 11 56 -15 12 -15 c 2
 11 -15 l 2
 -33 -15 -38 11 -28 55 c 2
 212 1097 l 2
EndSplineSet
EndChar
